<?xml version="1.0" encoding="utf-8"?>
<!-- Generator: Adobe Illustrator 17.1.0, SVG Export Plug-In . SVG Version: 6.00 Build 0)  -->
<!DOCTYPE svg PUBLIC "-//W3C//DTD SVG 1.1//EN" "http://www.w3.org/Graphics/SVG/1.1/DTD/svg11.dtd">
<svg version="1.1" id="Layer_1" xmlns="http://www.w3.org/2000/svg" xmlns:xlink="http://www.w3.org/1999/xlink" x="0px" y="0px"
	 viewBox="0 0 19 27" enable-background="new 0 0 19 27" xml:space="preserve">
<path fill="#1A1A1A" d="M18.461,9.231C18.461,4.132,14.328,0,9.232,0C4.135,0,0,4.132,0,9.231c0,1.739,0.494,3.361,1.328,4.75
	l-0.014-0.002l7.918,12.874l7.918-12.874l-0.014,0.002C17.971,12.592,18.461,10.97,18.461,9.231 M9.232,5.036
	c2.314,0,4.195,1.882,4.195,4.194c0,2.314-1.881,4.197-4.195,4.197c-2.314,0-4.195-1.883-4.195-4.197
	C5.037,6.918,6.918,5.036,9.232,5.036"/>
</svg>
