<?xml version="1.0" encoding="utf-8"?>
<!-- Generator: Adobe Illustrator 19.0.1, SVG Export Plug-In . SVG Version: 6.00 Build 0)  -->
<svg version="1.1" id="Layer_1" xmlns="http://www.w3.org/2000/svg" xmlns:xlink="http://www.w3.org/1999/xlink" x="0px" y="0px"
	 viewBox="0 0 57 75" style="enable-background:new 0 0 57 75;" xml:space="preserve">
<style type="text/css">
	.st0{fill:#FFFFFF;}
</style>
<g>
	<rect x="0" y="6.7" class="st0" width="56.9" height="1.2"/>
	<rect x="45.9" y="14.4" class="st0" width="11.1" height="1.2"/>
	<rect x="0" y="14.4" class="st0" width="10.8" height="1.2"/>
	<rect x="49" y="22" class="st0" width="7.9" height="1.2"/>
	<rect x="36.8" y="22" class="st0" width="4.9" height="1.2"/>
	<rect x="0" y="22" class="st0" width="7.6" height="1.2"/>
	<rect x="0" y="37.3" class="st0" width="56.9" height="1.2"/>
	<rect x="34.6" y="16.4" class="st0" width="1.2" height="3.6"/>
	<polygon class="st0" points="24,23.2 15,23.2 15,22 22.7,22 22.7,15 24,15 	"/>
	<path class="st0" d="M39.1,15.6H25.8v-2.2c0-0.2-0.1-0.3-0.2-0.4c-0.2-0.2-0.5-0.2-0.7,0l0,0c-0.1,0.1-0.2,0.3-0.2,0.4v2.2h-7.1
		v-1.2h5.9v-1c0-0.5,0.2-1,0.6-1.4l0,0c0.7-0.5,1.6-0.5,2.3,0c0.4,0.3,0.6,0.8,0.6,1.4v1h12.1V15.6z"/>
	<polygon class="st0" points="33.5,23.2 26.5,23.2 26.5,15 27.7,15 27.7,22 33.5,22 	"/>
	<polygon class="st0" points="21.9,30.8 12.5,30.8 18.1,10.7 12.8,11.9 4.8,30.8 0,30.8 0,29.6 4,29.6 11.9,10.9 19.8,9.1 
		14.1,29.6 20.7,29.6 20.7,27.6 21.7,26.2 21.7,22.6 22.9,22.6 22.9,26.5 21.9,28 	"/>
	<path class="st0" d="M56.9,30.8h-5l-8-18.9l-5.3-1.2l5.5,20.2h-7v-5.5l-0.9-0.9v-2.7c0-0.6-0.5-1-1-1c-0.6,0-1,0.5-1,1v2.7l-1,0.9
		v3.2h-5.6v-5.9h1.2v4.7h3.1v-2.5l1-0.9v-2.2c0-1.2,1-2.2,2.2-2.2c1.2,0,2.2,1,2.2,2.2v2.2l0.9,0.9v4.9h4.3L36.9,9.1l7.9,1.8
		l7.9,18.8h4.2V30.8z"/>
	<rect x="24.6" class="st0" width="1.2" height="12.3"/>
	<polygon class="st0" points="0.2,46.4 1.4,46.4 1.4,48.9 3.7,46.4 5.2,46.4 2.9,48.8 5.3,52 3.8,52 2.1,49.6 1.4,50.3 1.4,52 
		0.2,52 	"/>
	<path class="st0" d="M5.2,49.2c0-1.6,1.3-2.9,3-2.9c1.7,0,3,1.3,3,2.9c0,1.6-1.3,2.9-3,2.9C6.5,52.1,5.2,50.8,5.2,49.2 M9.9,49.2
		c0-1-0.7-1.8-1.7-1.8c-1,0-1.7,0.8-1.7,1.8c0,1,0.7,1.8,1.7,1.8C9.2,51,9.9,50.2,9.9,49.2"/>
	<polygon class="st0" points="12.1,46.4 13.5,46.4 14.9,48.8 16.4,46.4 17.7,46.4 17.7,52 16.5,52 16.5,48.4 14.9,50.8 14.9,50.8 
		13.3,48.4 13.3,52 12.1,52 	"/>
	<polygon class="st0" points="23.8,52 22.6,52 22.6,48.4 20.1,52 18.9,52 18.9,46.4 20.2,46.4 20.2,50.1 22.6,46.4 23.8,46.4 	"/>
	<polygon class="st0" points="26.3,47.6 24.6,47.6 24.6,46.4 29.2,46.4 29.2,47.6 27.5,47.6 27.5,52 26.3,52 	"/>
	<polygon class="st0" points="30,46.4 34.2,46.4 34.2,47.5 31.2,47.5 31.2,48.7 33.9,48.7 33.9,49.8 31.2,49.8 31.2,50.9 34.3,50.9 
		34.3,52 30,52 	"/>
	<polygon class="st0" points="36.5,47.6 34.8,47.6 34.8,46.4 39.5,46.4 39.5,47.6 37.8,47.6 37.8,52 36.5,52 	"/>
	<polygon class="st0" points="0.2,54 4.9,54 4.9,59.7 3.6,59.7 3.6,55.2 1.4,55.2 1.4,59.7 0.2,59.7 	"/>
	<path class="st0" d="M5.8,56.9c0-1.6,1.3-2.9,3-2.9c1.7,0,3,1.3,3,2.9c0,1.6-1.3,2.9-3,2.9C7,59.8,5.8,58.5,5.8,56.9 M10.5,56.9
		c0-1-0.7-1.8-1.7-1.8c-1,0-1.7,0.8-1.7,1.8c0,1,0.7,1.8,1.7,1.8C9.8,58.6,10.5,57.8,10.5,56.9"/>
	<polygon class="st0" points="15,54 16.2,54 16.2,56.5 18.5,54 20,54 17.7,56.4 20.1,59.7 18.6,59.7 16.8,57.3 16.2,57.9 16.2,59.7 
		15,59.7 	"/>
	<path class="st0" d="M24.4,54h1.3l-2.2,4.3c-0.5,1-1.1,1.4-1.8,1.4c-0.5,0-0.9-0.1-1.2-0.3l0.5-0.9c0.2,0.1,0.4,0.2,0.7,0.2
		c0.2,0,0.5-0.1,0.7-0.4L20.1,54h1.4l1.5,3L24.4,54z"/>
	<path class="st0" d="M30.7,54v5.6h-1.2v-4.5h-1.6v0.4c0,3.3-0.5,4.1-1.8,4.1c-0.2,0-0.5,0-0.6-0.1l0.1-1c0.1,0,0.1,0,0.2,0
		c0.7,0,1-0.4,1-3.5V54H30.7z"/>
	<path class="st0" d="M31.9,54h1.2V56h1.2c1.3,0,2.1,0.7,2.1,1.8c0,1.2-0.8,1.9-2.1,1.9h-2.4V54z M33.2,57v1.5h1.1
		c0.6,0,0.9-0.3,0.9-0.8c0-0.5-0.3-0.7-0.9-0.7H33.2z"/>
	<polygon class="st0" points="38,55.2 36.3,55.2 36.3,54 41,54 41,55.2 39.3,55.2 39.3,59.7 38,59.7 	"/>
	<path class="st0" d="M45.5,54h1.3l-2.2,4.3c-0.5,1-1.1,1.4-1.8,1.4c-0.5,0-0.9-0.1-1.2-0.3l0.5-0.9c0.2,0.1,0.4,0.2,0.7,0.2
		c0.2,0,0.5-0.1,0.7-0.4L41.2,54h1.4l1.5,3L45.5,54z"/>
	<path class="st0" d="M47.5,54h2.3c1.3,0,2.2,0.8,2.2,2c0,1.3-1,2-2.3,2h-0.9v1.7h-1.2V54z M49.7,56.9c0.6,0,1-0.4,1-0.9
		c0-0.6-0.4-0.9-1-0.9h-1v1.7H49.7z"/>
	<polygon class="st0" points="52.7,54 56.9,54 56.9,55.1 53.9,55.1 53.9,56.3 56.6,56.3 56.6,57.4 53.9,57.4 53.9,58.6 57,58.6 
		57,59.7 52.7,59.7 	"/>
	<path class="st0" d="M0.2,64.5c0-1.6,1.2-2.9,2.9-2.9c1.1,0,1.7,0.4,2.2,0.9l-0.7,0.9c-0.4-0.4-0.8-0.6-1.4-0.6
		c-0.9,0-1.6,0.8-1.6,1.8c0,1,0.7,1.8,1.6,1.8c0.6,0,1-0.3,1.5-0.7l0.8,0.8c-0.6,0.6-1.2,1-2.3,1C1.4,67.4,0.2,66.1,0.2,64.5"/>
	<path class="st0" d="M7.9,61.6H9l2.4,5.7h-1.3L9.6,66H7.2l-0.5,1.3H5.5L7.9,61.6z M9.2,64.9l-0.7-1.8l-0.7,1.8H9.2z"/>
	<polygon class="st0" points="12.1,61.7 13.4,61.7 13.4,63.9 15.6,63.9 15.6,61.7 16.9,61.7 16.9,67.3 15.6,67.3 15.6,65 13.4,65 
		13.4,67.3 12.1,67.3 	"/>
	<polygon class="st0" points="18.1,61.7 19.3,61.7 19.3,64.1 21.6,61.7 23.1,61.7 20.8,64.1 23.2,67.3 21.7,67.3 19.9,64.9 
		19.3,65.6 19.3,67.3 18.1,67.3 	"/>
	<polygon class="st0" points="25.1,62.8 23.4,62.8 23.4,61.7 28,61.7 28,62.8 26.3,62.8 26.3,67.3 25.1,67.3 	"/>
	<polygon class="st0" points="0.2,69.3 4.9,69.3 4.9,74.9 3.6,74.9 3.6,70.4 1.4,70.4 1.4,74.9 0.2,74.9 	"/>
	<polygon class="st0" points="6,69.3 10.3,69.3 10.3,70.4 7.3,70.4 7.3,71.5 9.9,71.5 9.9,72.6 7.3,72.6 7.3,73.8 10.3,73.8 
		10.3,74.9 6,74.9 	"/>
	<polygon class="st0" points="12.6,70.4 10.9,70.4 10.9,69.3 15.5,69.3 15.5,70.4 13.8,70.4 13.8,74.9 12.6,74.9 	"/>
	<polygon class="st0" points="16.3,69.3 20.5,69.3 20.5,70.4 17.5,70.4 17.5,71.5 20.2,71.5 20.2,72.6 17.5,72.6 17.5,73.8 
		20.6,73.8 20.6,74.9 16.3,74.9 	"/>
	<path class="st0" d="M21.5,69.3h2.3c1.3,0,2.2,0.8,2.2,2c0,1.3-1,2-2.3,2h-0.9v1.7h-1.2V69.3z M23.7,72.1c0.6,0,1-0.4,1-0.9
		c0-0.6-0.4-0.9-1-0.9h-1v1.7H23.7z"/>
	<path class="st0" d="M28,71.4h1.5c1.3,0,2,0.7,2,1.7c0,1.1-0.8,1.8-2.1,1.8h-2.6v-5.6H31v1.1H28V71.4z M28,72.4v1.4h1.4
		c0.6,0,0.9-0.2,0.9-0.7c0-0.4-0.3-0.7-0.9-0.7H28z"/>
	<path class="st0" d="M36,69.3h1.3l-2.2,4.3c-0.5,1-1.1,1.4-1.8,1.4c-0.5,0-0.9-0.1-1.2-0.3l0.5-0.9c0.2,0.1,0.4,0.2,0.7,0.2
		c0.2,0,0.5-0.1,0.7-0.4l-2.2-4.2h1.4l1.5,3L36,69.3z"/>
	<path class="st0" d="M38,69.3h2.3c1.3,0,2.2,0.8,2.2,2c0,1.3-1,2-2.3,2h-0.9v1.7H38V69.3z M40.2,72.1c0.6,0,1-0.4,1-0.9
		c0-0.6-0.4-0.9-1-0.9h-1v1.7H40.2z"/>
	<polygon class="st0" points="44.4,74.9 43.2,74.9 43.2,69.3 47.1,69.3 47.1,70.4 44.4,70.4 	"/>
	<path class="st0" d="M49,69.3h1.1l2.4,5.7h-1.3l-0.5-1.3h-2.4l-0.5,1.3h-1.3L49,69.3z M50.3,72.6l-0.7-1.8l-0.7,1.8H50.3z"/>
	<rect x="29.5" y="63.9" class="st0" width="4.7" height="1.2"/>
</g>
</svg>
