<?xml version="1.0" encoding="iso-8859-1"?>
<!-- Generator: Adobe Illustrator 17.1.0, SVG Export Plug-In . SVG Version: 6.00 Build 0)  -->
<!DOCTYPE svg PUBLIC "-//W3C//DTD SVG 1.1//EN" "http://www.w3.org/Graphics/SVG/1.1/DTD/svg11.dtd">
<svg version="1.1" id="Layer_1" xmlns="http://www.w3.org/2000/svg" xmlns:xlink="http://www.w3.org/1999/xlink" x="0px" y="0px"
	 viewBox="0 0 241.043 75" style="enable-background:new 0 0 241.043 75;" xml:space="preserve">
<g>
	<path style="fill:#FFFFFF;" d="M67.037,47.461c0,1.569-0.631,2.77-1.894,3.605c-1.073,0.719-2.441,1.076-4.105,1.076
		c-0.332,0-0.985-0.015-1.956-0.051c-0.584-0.022-1.077-0.033-1.474-0.033c-0.35,0-1.456,0.022-3.324,0.066l-0.095-0.077V51.3
		l0.106-0.106c0.726-0.044,1.142-0.08,1.252-0.109c0.204-0.055,0.325-0.186,0.361-0.394c0.095-0.514,0.138-1.616,0.138-3.313v-5.656
		c0-1.697-0.044-2.802-0.138-3.313c-0.074-0.425-0.412-0.46-0.785-0.483c-0.176-0.011-1.014-0.04-0.839-0.034l-0.149-0.242
		l-0.001-0.558l0.14-0.194c0.493,0.022,1.015,0.044,1.505,0.082c0.942,0.051,2.68,0.03,3.437,0.047c0.023,0,0.046,0.002,0.066,0.005
		l0.796,0.009l4.415-0.022c0.504-0.014,0.934-0.044,1.281-0.087l0.12,0.109c-0.087,0.493-0.135,1.022-0.142,1.591l-0.018,1.828
		l-0.109,0.109h-0.682l-0.109-0.098c-0.018-0.412-0.04-0.825-0.062-1.241c-0.08-0.547-0.27-0.876-0.576-0.982
		c-0.223-0.08-0.949-0.117-2.182-0.117H59.21c-0.062,1.766-0.095,2.857-0.095,3.269v2.043c1.945,0,3.342,0.073,4.192,0.223
		C65.793,44.108,67.037,45.374,67.037,47.461L67.037,47.461z M109.666,41.919l0.058,0.053l0.059,0.053v0.327v0.327l-0.069,0.053
		l-0.069,0.053c-0.348,0.011-0.629,0.029-0.84,0.056c-0.212,0.026-0.354,0.061-0.427,0.105c-0.073,0.042-0.129,0.125-0.167,0.248
		c-0.038,0.123-0.06,0.287-0.063,0.489l-0.016,0.476l-0.017,0.476c-0.004,0.161-0.006,0.427-0.008,0.799
		c-0.002,0.372-0.003,0.85-0.003,1.434c0,0.568,0.003,1.084,0.008,1.55c0.005,0.466,0.012,0.881,0.021,1.246
		c0.009,0.365,0.022,0.652,0.039,0.859c0.017,0.207,0.038,0.336,0.063,0.385c0.024,0.051,0.058,0.095,0.101,0.132
		c0.043,0.037,0.096,0.069,0.158,0.094c0.062,0.025,0.191,0.047,0.386,0.066c0.195,0.019,0.457,0.036,0.786,0.05l0.058,0.053
		l0.059,0.053v0.327v0.327l-0.053,0.055l-0.053,0.055c-0.339-0.025-0.753-0.045-1.241-0.058c-0.488-0.013-1.051-0.019-1.69-0.019
		c-0.595,0-1.135,0.006-1.621,0.019c-0.486,0.013-0.917,0.032-1.295,0.058l-0.054-0.055l-0.055-0.055v-0.327v-0.327l0.055-0.053
		l0.054-0.053c0.334-0.015,0.6-0.032,0.797-0.052c0.197-0.02,0.327-0.043,0.389-0.068c0.06-0.027,0.111-0.061,0.153-0.101
		c0.042-0.04,0.075-0.085,0.098-0.136c0.022-0.051,0.042-0.169,0.059-0.353c0.017-0.184,0.03-0.435,0.04-0.753
		c0.011-0.317,0.019-0.718,0.025-1.201c0.006-0.483,0.008-1.049,0.008-1.697v-1.888v-1.888c-0.603,0.539-1.217,1.095-1.974,1.777
		c-0.757,0.683-1.659,1.491-2.837,2.537c-0.019,0.028-0.028,0.425-0.032,0.875c-0.003,0.45-0.001,0.954,0.005,1.195
		c0.004,0.196,0.001,0.459,0.01,0.72c0.009,0.261,0.033,0.518,0.091,0.7l0,0v0l0.003,0.002l0.003,0.002
		c0.024,0.051,0.058,0.095,0.101,0.132c0.043,0.038,0.096,0.069,0.158,0.094c0.062,0.025,0.191,0.047,0.386,0.066
		c0.195,0.019,0.457,0.036,0.786,0.05l0.058,0.053l0.058,0.053v0.327v0.327l-0.053,0.055l-0.053,0.055
		c-0.339-0.026-0.753-0.045-1.241-0.058c-0.488-0.013-1.051-0.019-1.69-0.019c-0.595,0-1.135,0.006-1.621,0.019
		c-0.486,0.013-0.918,0.032-1.295,0.058l-0.055-0.055l-0.055-0.055v-0.327V51.37l0.005-0.004l0.004-0.004v-0.006v-0.006L96.21,51.3
		l0.047-0.049c0.321-0.015,0.577-0.031,0.769-0.048c0.191-0.017,0.318-0.037,0.38-0.058c0.062-0.022,0.116-0.049,0.161-0.083
		c0.044-0.034,0.08-0.074,0.106-0.121c0.027-0.046,0.05-0.149,0.069-0.308c0.019-0.16,0.033-0.376,0.044-0.648
		c0.011-0.272,0.019-0.515,0.024-0.728c0.006-0.213,0.008-0.396,0.008-0.55c0-1.166-0.001-2.122-0.003-2.869
		c-0.002-0.747-0.006-1.285-0.011-1.613c-0.005-0.326-0.018-0.585-0.037-0.775c-0.019-0.19-0.045-0.311-0.076-0.364
		c-0.033-0.051-0.075-0.094-0.126-0.129c-0.051-0.035-0.112-0.063-0.181-0.082c-0.069-0.02-0.197-0.037-0.383-0.053
		c-0.186-0.015-0.431-0.028-0.734-0.039l-0.053-0.058l-0.053-0.058V42.34v-0.327l0.053-0.053l0.053-0.053
		c0.343,0.024,0.757,0.042,1.244,0.054c0.486,0.012,1.045,0.019,1.676,0.019c0.646,0,1.212-0.007,1.701-0.019
		c0.488-0.012,0.897-0.03,1.23-0.054l0.053,0.053l0.053,0.053v0.327v0.327l-0.058,0.058l-0.059,0.058
		c-0.317,0.015-0.571,0.03-0.761,0.047c-0.19,0.017-0.316,0.037-0.378,0.059c-0.062,0.022-0.115,0.047-0.158,0.077
		c-0.044,0.03-0.079,0.064-0.104,0.102c-0.026,0.037-0.047,0.133-0.066,0.29c-0.019,0.157-0.036,0.373-0.05,0.648
		c-0.024,0.454-0.032,0.752-0.033,1.05c-0.002,0.298,0.002,0.597,0.002,1.052c1.11-0.972,1.8-1.565,2.456-2.143
		c0.656-0.577,1.28-1.139,2.257-2.046c0.25,0.02,0.527,0.035,0.829,0.046c0.303,0.01,0.632,0.016,0.988,0.016
		c0.359,0,0.754-0.006,1.184-0.016C108.703,41.954,109.168,41.939,109.666,41.919L109.666,41.919z M63.808,47.665
		c0-1.018-0.299-1.802-0.898-2.353c-0.533-0.482-1.233-0.744-2.094-0.781c-0.358-0.011-0.923-0.018-1.7-0.018v6.404
		c0.336,0.047,0.741,0.073,1.219,0.073c0.814,0,1.405-0.066,1.773-0.193c0.536-0.19,0.963-0.576,1.284-1.153
		C63.669,49.136,63.808,48.479,63.808,47.665L63.808,47.665z M70.946,42.791c1.105-0.828,2.488-1.241,4.156-1.241
		c1.704,0,3.08,0.434,4.127,1.306c1.135,0.93,1.7,2.233,1.7,3.901c0,1.131-0.233,2.134-0.704,3.003
		c-0.507,0.941-1.244,1.635-2.215,2.083c-0.989,0.456-2.062,0.686-3.218,0.686c-2.306,0-3.963-0.799-4.97-2.394
		c-0.555-0.872-0.825-1.963-0.81-3.284C69.031,45.101,69.676,43.747,70.946,42.791L70.946,42.791z M71.96,46.874
		c0,1.262,0.186,2.299,0.555,3.112c0.5,1.102,1.303,1.657,2.408,1.657c2.043,0,3.065-1.591,3.065-4.769
		c0-1.375-0.263-2.466-0.796-3.269c-0.529-0.806-1.277-1.208-2.24-1.208c-1.069,0-1.861,0.507-2.383,1.525
		C72.165,44.714,71.96,45.699,71.96,46.874L71.96,46.874z M94.759,45.87c0,2.499-0.93,4.316-2.791,5.451
		c-1.04,0.635-2.251,0.952-3.634,0.952c-0.547,0-1.138-0.069-1.773-0.204v2.941c0,0.817,0.026,1.336,0.073,1.547
		c0.036,0.157,0.131,0.267,0.288,0.321c0.139,0.051,0.606,0.095,1.412,0.128l0.106,0.109v0.66l-0.117,0.099l-0.493-0.022
		c-0.817-0.037-1.7-0.055-2.649-0.055c-0.733,0-1.675,0.026-2.824,0.077l-0.106-0.11v-0.649l0.106-0.109
		c0.635-0.026,1.029-0.065,1.179-0.117c0.128-0.044,0.215-0.15,0.266-0.321c0.044-0.149,0.066-0.668,0.066-1.558v-9.709
		c0-0.89-0.026-1.416-0.073-1.576c-0.044-0.16-0.131-0.259-0.259-0.303c-0.15-0.051-0.558-0.091-1.219-0.117l-0.12-0.109v-0.598
		l0.098-0.106c1.332-0.142,2.686-0.441,4.061-0.897l0.226,0.139l-0.011,1.817c1.117-1.219,2.43-1.828,3.933-1.828
		c0.748,0,1.445,0.161,2.095,0.482c0.693,0.343,1.219,0.817,1.584,1.43C94.566,44.283,94.759,45.027,94.759,45.87L94.759,45.87z
		 M91.979,47.268c0-1.686-0.478-2.831-1.43-3.43c-0.485-0.307-1.014-0.46-1.583-0.46c-1.076,0-1.795,0.412-2.16,1.24
		c-0.164,0.376-0.245,0.974-0.245,1.784v3.656c0.784,0.799,1.616,1.197,2.499,1.197c0.58,0,1.105-0.182,1.584-0.544
		c0.441-0.35,0.774-0.803,0.992-1.357C91.866,48.771,91.979,48.074,91.979,47.268L91.979,47.268z M119.825,42.375
		c-0.292,0.847-0.474,1.729-0.543,2.649l-0.099,0.098h-0.566l-0.095-0.109c-0.157-1.168-0.529-1.905-1.113-2.211
		c-0.292-0.15-0.613-0.226-0.963-0.226c-1.109,0-1.89,0.631-2.339,1.894c-0.23,0.642-0.343,1.335-0.343,2.083
		c0,1.967,0.595,3.31,1.784,4.032c0.591,0.354,1.241,0.533,1.945,0.533c0.701,0,1.35-0.212,1.948-0.642l0.19,0.376l-0.533,0.909
		c-0.97,0.514-2.047,0.77-3.229,0.77c-1.503,0-2.707-0.467-3.612-1.401c-0.905-0.934-1.357-2.156-1.357-3.667
		c0-1.766,0.598-3.185,1.795-4.254c1.149-1.025,2.616-1.54,4.404-1.54c1.033,0,1.916,0.175,2.642,0.525L119.825,42.375
		L119.825,42.375z M131.696,51.993l-0.106,0.12c-0.62-0.037-1.263-0.055-1.923-0.055c-0.679,0-1.306,0.018-1.883,0.055l-0.106-0.12
		l0.106-1.335l-0.16-0.044c-0.478,0.431-0.795,0.708-0.952,0.836c-0.321,0.263-0.606,0.46-0.854,0.587
		c-0.456,0.237-1.029,0.354-1.722,0.354c-1.81,0-2.715-0.898-2.715-2.693c0-0.934,0.277-1.66,0.836-2.171
		c0.427-0.394,1.368-0.723,2.82-0.996l2.609-0.478c-0.015-0.642-0.073-1.124-0.172-1.445c-0.149-0.478-0.434-0.85-0.854-1.124
		c-0.343-0.212-0.733-0.321-1.168-0.321c-0.314,0-0.722,0.051-1.23,0.153l-0.81,1.558l-0.139,0.077l-0.46-0.088l-0.109-0.15
		l0.109-1.42c1.66-1.105,2.97-1.656,3.933-1.656c1.354,0,2.342,0.423,2.97,1.27c0.372,0.5,0.558,1.204,0.558,2.116
		c0,0.299-0.018,1.04-0.055,2.226c-0.015,0.471-0.022,0.876-0.022,1.219c0,1.58,0.055,2.441,0.161,2.576
		c0.106,0.135,0.522,0.215,1.241,0.244l0.095,0.106V51.993L131.696,51.993z M127.668,48.381v-1.722
		c-0.65,0.186-1.149,0.339-1.496,0.46c-0.7,0.237-1.164,0.442-1.39,0.609c-0.478,0.358-0.719,0.854-0.719,1.489
		c0,0.442,0.146,0.806,0.431,1.098c0.285,0.296,0.646,0.442,1.087,0.442c0.679,0,1.237-0.281,1.679-0.835
		C127.533,49.577,127.668,49.067,127.668,48.381z"/>
	<path style="fill-rule:evenodd;clip-rule:evenodd;fill:#FFFFFF;" d="M163.44,37.043c-0.265-0.391-1.417,0.026-2.617,1.146
		c-0.554,0.516-1.689,1.726-1.3,2.169c0.38,0.432,1.779-0.37,2.538-1.04C162.577,38.862,163.919,37.749,163.44,37.043z"/>
	<path style="fill:#FFFFFF;" d="M153.21,44.254c0,1.562-0.31,2.966-0.93,4.214c-0.675,1.354-1.66,2.383-2.948,3.087
		c-1.193,0.65-2.631,0.974-4.32,0.974c-1.638,0-3.28-0.361-4.929-1.08l-0.478-1.263l0.299-0.234
		c1.168,0.763,2.354,1.142,3.558,1.142c1.824,0,3.342-0.609,4.554-1.828c1.211-1.219,1.846-2.806,1.905-4.765
		c-2.638,0-4.156,0.055-4.554,0.172c-0.471,0.135-0.752,0.536-0.846,1.208c-0.037,0.248-0.073,0.474-0.117,0.682l-0.084,0.106
		h-0.642l-0.109-0.106c0.029-0.434,0.044-1.255,0.044-2.459c0-1.189-0.018-1.934-0.051-2.233l0.095-0.106h0.671l0.088,0.106
		c0.051,0.299,0.102,0.598,0.161,0.898c0.106,0.394,0.263,0.631,0.471,0.715c0.248,0.102,1.865,0.15,4.853,0.15
		c-0.073-1.773-0.547-3.2-1.427-4.28c-0.879-1.08-2.171-1.62-3.864-1.62c-1.186,0-2.087,0.259-2.711,0.77
		c-0.624,0.514-1.073,1.35-1.354,2.514l-0.095,0.095h-0.555l-0.055-0.106c0.058-0.606,0.084-1.39,0.084-2.354
		c0-0.368-0.007-0.744-0.029-1.12l0.062-0.142c1.463-0.442,3.047-0.661,4.758-0.661c3.029,0,5.254,0.777,6.681,2.328
		C152.604,40.379,153.21,42.108,153.21,44.254L153.21,44.254z M176.456,43.393l-0.015-0.815l-0.004-0.191
		c-2.582,0.189-3.87,1.742-3.87,4.658c0,1.295,0.284,2.335,0.854,3.112c0.573,0.774,1.251,1.277,2.043,1.507
		c0.299,0.084,0.631,0.139,0.993,0.161V43.393L176.456,43.393z M176.421,41.692c-0.024-0.865-0.06-1.397-0.142-1.597
		c-0.059-0.144-0.214-0.232-0.464-0.269c-0.088-0.015-0.402-0.033-0.939-0.052l-0.107-0.11V39.06l0.107-0.118
		c1.63-0.241,2.773-1.361,3.705-2.634c0.029-0.029,0.153-0.114,0.171-0.114c0.169-0.004,0.607,0.038,0.686,0.03
		c0.024,0.003,0.119,0.106,0.122,0.132c-0.063,0.209-0.235,1.519-0.288,2.126c-0.052,0.589-0.121,1.958-0.137,3.207
		c3.119,0.202,5.191,1.107,6.207,2.714c0.493,0.777,0.737,1.649,0.737,2.609c0,1.606-0.606,2.912-1.817,3.922
		c-1.277,1.055-3.006,1.584-5.196,1.584c0,0.978,0.011,1.817,0.033,2.521c0.036,1.219,0.11,1.89,0.226,2.01
		c0.069,0.08,0.149,0.124,0.233,0.139c0.12,0.022,0.463,0.044,1.025,0.066l0.099,0.117v0.653l-0.11,0.106
		c-1.003-0.051-1.89-0.073-2.66-0.073c-1.054,0-2.047,0.022-2.974,0.073l-0.117-0.106v-0.653l0.117-0.117
		c0.613-0.029,0.996-0.073,1.146-0.128c0.15-0.058,0.237-0.164,0.266-0.321c0.044-0.193,0.069-0.711,0.077-1.551
		c0.015-1.441,0.018-2.354,0.018-2.737c-2.142,0-3.849-0.529-5.119-1.584c-1.219-1.011-1.828-2.317-1.828-3.922
		c0-2.043,0.963-3.532,2.886-4.459C173.312,42.108,174.658,41.821,176.421,41.692L176.421,41.692z M179.13,42.387
		c-0.001,0.233-0.005,0.463-0.01,0.687v8.752c0.719-0.022,1.398-0.252,2.032-0.686c0.606-0.42,1.065-0.949,1.383-1.584
		c0.318-0.631,0.474-1.507,0.474-2.616C183.009,44.082,181.717,42.565,179.13,42.387L179.13,42.387z M194.78,52.23h-0.631
		c0-0.029-0.208-0.423-0.62-1.186l-1.346-2.697c-0.35-0.69-0.712-1.438-1.08-2.244l-1.091-2.299v5.462
		c0,0.828,0.026,1.332,0.073,1.514c0.051,0.182,0.146,0.299,0.285,0.357c0.139,0.058,0.536,0.099,1.193,0.128l0.117,0.106v0.653
		l-0.106,0.11c-0.763-0.051-1.456-0.077-2.076-0.077c-0.441,0-1.095,0.029-1.956,0.084l-0.106-0.106v-0.653l0.106-0.106
		c0.598-0.022,0.985-0.058,1.157-0.113c0.168-0.051,0.274-0.161,0.314-0.325c0.04-0.164,0.058-0.686,0.058-1.573v-3.922
		l-0.022-1.657c0-0.328-0.058-0.551-0.175-0.668c-0.117-0.117-0.398-0.179-0.839-0.186c-0.113-0.007-0.281-0.015-0.503-0.022
		l-0.106-0.117v-0.653l0.106-0.106c0.591,0.04,1.281,0.062,2.065,0.062c0.854,0,1.704-0.022,2.554-0.062
		c0.576,1.423,1.682,3.718,3.313,6.881c0.522-1.047,1.124-2.306,1.806-3.773c0.686-1.467,1.149-2.503,1.39-3.109
		c0.62,0.047,1.197,0.073,1.733,0.073c0.292,0,1.128-0.026,2.51-0.073l0.106,0.095v0.653l-0.117,0.106
		c-0.584,0.022-0.96,0.058-1.131,0.106c-0.171,0.051-0.277,0.142-0.317,0.278c-0.04,0.138-0.066,0.635-0.084,1.5
		c-0.018,0.861-0.029,1.624-0.029,2.288c0,1.065,0.015,1.978,0.04,2.726c0.026,0.748,0.062,1.168,0.117,1.266
		c0.055,0.095,0.157,0.168,0.31,0.212c0.153,0.047,0.525,0.08,1.116,0.102l0.106,0.106v0.653l-0.106,0.11
		c-0.697-0.051-1.686-0.077-2.959-0.077c-1.014,0-1.956,0.022-2.824,0.066l-0.106-0.099v-0.66l0.106-0.11
		c0.569-0.022,0.931-0.047,1.084-0.084c0.153-0.037,0.259-0.098,0.317-0.182c0.055-0.084,0.095-0.339,0.117-0.763
		c0.022-0.427,0.033-1.368,0.033-2.828v-3.39C197.178,46.987,195.875,49.727,194.78,52.23L194.78,52.23z M214.692,51.993
		l-0.106,0.12c-0.62-0.037-1.262-0.055-1.923-0.055c-0.679,0-1.306,0.018-1.883,0.055l-0.106-0.12l0.106-1.335l-0.161-0.044
		c-0.478,0.431-0.795,0.708-0.952,0.836c-0.321,0.263-0.606,0.46-0.854,0.587c-0.456,0.237-1.029,0.354-1.722,0.354
		c-1.81,0-2.715-0.898-2.715-2.693c0-0.934,0.277-1.66,0.836-2.171c0.427-0.394,1.368-0.723,2.82-0.996l2.609-0.478
		c-0.015-0.642-0.073-1.124-0.172-1.445c-0.149-0.478-0.434-0.85-0.854-1.124c-0.343-0.212-0.733-0.321-1.168-0.321
		c-0.314,0-0.722,0.051-1.23,0.153l-0.81,1.558l-0.139,0.077l-0.46-0.088l-0.109-0.15l0.109-1.42c1.66-1.105,2.97-1.656,3.933-1.656
		c1.354,0,2.343,0.423,2.97,1.27c0.372,0.5,0.558,1.204,0.558,2.116c0,0.299-0.018,1.04-0.055,2.226
		c-0.015,0.471-0.022,0.876-0.022,1.219c0,1.58,0.055,2.441,0.161,2.576c0.106,0.135,0.522,0.215,1.241,0.244l0.095,0.106V51.993
		L214.692,51.993z M210.663,48.381v-1.722c-0.649,0.186-1.149,0.339-1.496,0.46c-0.701,0.237-1.164,0.442-1.39,0.609
		c-0.478,0.358-0.719,0.854-0.719,1.489c0,0.442,0.146,0.806,0.431,1.098c0.284,0.296,0.646,0.442,1.087,0.442
		c0.679,0,1.237-0.281,1.678-0.835C210.529,49.577,210.663,49.067,210.663,48.381L210.663,48.381z M229.36,52.026l-0.106,0.11
		c-0.679-0.051-1.653-0.077-2.919-0.077c-1.19,0-2.164,0.026-2.919,0.077l-0.106-0.11v-0.653l0.084-0.106
		c0.679-0.029,1.087-0.069,1.233-0.128c0.146-0.058,0.237-0.164,0.274-0.321c0.044-0.204,0.066-0.722,0.066-1.551v-2.416h-4.907
		v2.416c0,0.828,0.025,1.347,0.076,1.551c0.033,0.157,0.128,0.263,0.277,0.321c0.15,0.058,0.555,0.099,1.219,0.128l0.106,0.106
		v0.653l-0.106,0.11c-0.671-0.051-1.646-0.077-2.919-0.077c-1.284,0-2.259,0.026-2.93,0.077l-0.106-0.11v-0.653l0.117-0.106
		c0.62-0.029,1.014-0.069,1.186-0.128c0.135-0.044,0.23-0.149,0.277-0.321c0.044-0.15,0.066-0.664,0.066-1.551v-3.547
		c0-1.646-0.055-2.536-0.161-2.663c-0.066-0.077-0.153-0.131-0.266-0.161c-0.179-0.036-0.555-0.065-1.124-0.095l-0.106-0.106v-0.653
		l0.106-0.106c0.686,0.047,1.656,0.073,2.919,0.073c1.285,0,2.259-0.026,2.93-0.073l0.106,0.106v0.664l-0.117,0.106
		c-0.635,0.015-1.04,0.051-1.219,0.117c-0.15,0.058-0.245,0.179-0.278,0.369c-0.036,0.19-0.055,0.766-0.055,1.726v1.036h4.907
		v-0.726c0-0.854-0.011-1.416-0.033-1.689c-0.036-0.42-0.168-0.664-0.394-0.737c-0.109-0.036-0.482-0.065-1.124-0.095l-0.117-0.117
		v-0.653l0.117-0.106c0.675,0.047,1.649,0.073,2.919,0.073c1.196,0,2.167-0.026,2.919-0.073l0.106,0.106v0.664l-0.106,0.106
		c-0.635,0.015-1.044,0.051-1.219,0.117c-0.15,0.058-0.245,0.179-0.281,0.369c-0.033,0.19-0.051,0.766-0.051,1.726v4.244
		c0,0.828,0.026,1.347,0.073,1.551c0.036,0.157,0.128,0.263,0.277,0.321c0.15,0.058,0.551,0.099,1.201,0.128l0.106,0.106V52.026
		L229.36,52.026z M241.043,51.993l-0.106,0.12c-0.62-0.037-1.263-0.055-1.923-0.055c-0.679,0-1.306,0.018-1.883,0.055l-0.106-0.12
		l0.106-1.335l-0.16-0.044c-0.478,0.431-0.796,0.708-0.952,0.836c-0.321,0.263-0.606,0.46-0.854,0.587
		c-0.456,0.237-1.029,0.354-1.722,0.354c-1.81,0-2.715-0.898-2.715-2.693c0-0.934,0.277-1.66,0.836-2.171
		c0.427-0.394,1.368-0.723,2.82-0.996l2.609-0.478c-0.015-0.642-0.073-1.124-0.172-1.445c-0.149-0.478-0.434-0.85-0.854-1.124
		c-0.343-0.212-0.733-0.321-1.168-0.321c-0.314,0-0.722,0.051-1.23,0.153l-0.81,1.558l-0.139,0.077l-0.46-0.088l-0.11-0.15
		l0.11-1.42c1.66-1.105,2.97-1.656,3.933-1.656c1.354,0,2.343,0.423,2.97,1.27c0.372,0.5,0.558,1.204,0.558,2.116
		c0,0.299-0.018,1.04-0.055,2.226c-0.015,0.471-0.022,0.876-0.022,1.219c0,1.58,0.055,2.441,0.161,2.576
		c0.106,0.135,0.522,0.215,1.241,0.244l0.095,0.106V51.993L241.043,51.993z M237.015,48.381v-1.722
		c-0.65,0.186-1.149,0.339-1.496,0.46c-0.7,0.237-1.164,0.442-1.39,0.609c-0.478,0.358-0.719,0.854-0.719,1.489
		c0,0.442,0.146,0.806,0.431,1.098c0.285,0.296,0.646,0.442,1.087,0.442c0.679,0,1.237-0.281,1.678-0.835
		C236.88,49.577,237.015,49.067,237.015,48.381z"/>
	<path style="fill:#FFFFFF;" d="M68.215,15.126c-0.092,0.551-0.137,1.124-0.145,1.713l-0.023,1.87l-0.111,0.115H67.23l-0.122-0.103
		c-0.038-0.956-0.08-1.514-0.122-1.679c-0.091-0.298-0.328-0.474-0.718-0.527c-0.149-0.023-0.851-0.035-2.104-0.035h-1.497
		c-0.015,0.264-0.023,1.3-0.023,3.116v6.362c0,1.778,0.05,2.933,0.145,3.472c0.038,0.218,0.164,0.356,0.382,0.413
		c0.111,0.03,0.546,0.069,1.306,0.115l0.115,0.111v0.749l-0.115,0.115c-0.737-0.046-1.886-0.069-3.444-0.069
		c-1.596,0-2.745,0.023-3.444,0.069l-0.103-0.103v-0.761l0.115-0.111c0.76-0.046,1.195-0.084,1.306-0.115
		c0.218-0.057,0.344-0.195,0.382-0.413c0.096-0.539,0.145-1.694,0.145-3.472v-6.362c0-1.847-0.011-2.883-0.034-3.116h-1.6
		c-1.333,0-2.111,0.042-2.337,0.122c-0.118,0.046-0.202,0.103-0.244,0.168c-0.069,0.122-0.126,0.359-0.168,0.719
		c-0.053,0.394-0.088,0.803-0.103,1.22l-0.111,0.115H54.13l-0.122-0.115l-0.023-1.916c-0.008-0.535-0.05-1.093-0.134-1.667
		l0.099-0.115c0.443,0.076,2.047,0.115,4.811,0.115h4.532c2.551,0,4.154-0.038,4.811-0.115L68.215,15.126L68.215,15.126z
		 M82.283,27.12c-0.164,1.094-0.244,2.325-0.244,3.697l-0.114,0.115l-8.133-0.069c-1.355,0-2.314,0.023-2.871,0.069l-0.114-0.115
		v-0.314l0.057-0.134c0.55-0.352,0.852-0.57,0.894-0.661c0.069-0.141,0.111-0.639,0.122-1.487l0.034-2.512v-5.678
		c0-1.778-0.046-2.936-0.145-3.472c-0.038-0.218-0.164-0.355-0.378-0.417c-0.114-0.027-0.55-0.065-1.31-0.111l-0.111-0.111V15.16
		l0.111-0.103c0.752,0.046,1.917,0.069,3.49,0.069c1.401,0,4.067-0.023,8-0.069l0.122,0.092l-0.145,1.243
		c-0.046,0.394-0.08,0.73-0.103,1.009l-0.076,1.04l-0.111,0.122h-0.649l-0.115-0.111c-0.008-1.017-0.065-1.594-0.179-1.736
		c-0.08-0.107-0.481-0.187-1.199-0.249c-0.721-0.057-1.352-0.088-1.898-0.088c-0.649,0-1.306,0.027-1.97,0.076
		c-0.08,0.784-0.122,1.874-0.122,3.261v2.317c0.588,0.038,1.065,0.057,1.432,0.057l1.466-0.012c0.687-0.008,1.073-0.061,1.165-0.168
		c0.118-0.134,0.194-0.638,0.233-1.51l0.111-0.115h0.695l0.111,0.115c-0.027,0.834-0.042,1.602-0.042,2.294
		c0,0.757,0.015,1.579,0.042,2.478l-0.111,0.099h-0.748l-0.114-0.111c0-0.86-0.057-1.369-0.176-1.529
		c-0.122-0.161-0.481-0.268-1.088-0.321c-0.454-0.034-0.939-0.053-1.451-0.053c-0.546,0-1.054,0.019-1.524,0.053v3.418
		c0,0.979,0.019,1.927,0.057,2.845h1.52c2.176,0,3.513-0.084,4.005-0.256c0.08-0.031,0.141-0.073,0.18-0.126
		c0.073-0.103,0.145-0.325,0.214-0.669l0.267-1.392l0.111-0.123h0.683L82.283,27.12L82.283,27.12z M101.64,30.818l-0.099,0.115
		c-1.657-0.046-2.654-0.069-2.997-0.069c-1.371,0-2.646,0.023-3.826,0.069l-0.099-0.115v-0.704l0.111-0.126l0.974-0.053
		c0.409-0.023,0.615-0.168,0.615-0.436c0-0.157-0.103-0.509-0.313-1.055l-0.905-2.363c-1.031-0.015-2.081-0.023-3.158-0.023
		c-0.58,0-1.443,0.008-2.593,0.023l-0.492,1.365c-0.374,1.04-0.561,1.69-0.561,1.95c0,0.283,0.176,0.451,0.527,0.505
		c0.195,0.031,0.573,0.061,1.142,0.088l0.111,0.115v0.715l-0.111,0.115c-1.378-0.046-2.268-0.069-2.661-0.069
		c-0.305,0-1.065,0.023-2.272,0.069l-0.111-0.103v-0.726l0.122-0.115c0.767-0.042,1.237-0.195,1.413-0.459
		c0.176-0.26,0.836-1.816,1.974-4.669l2.921-7.314c0.218-0.57,0.546-1.422,0.985-2.566h1.588l5.93,13.967
		c0.229,0.532,0.439,0.83,0.626,0.895c0.244,0.092,0.599,0.138,1.062,0.138l0.099,0.122V30.818L101.64,30.818z M94.549,24.792
		l-2.394-5.869l-2.295,5.869c0.615,0.023,1.409,0.035,2.387,0.035C93.194,24.826,93.961,24.815,94.549,24.792L94.549,24.792z
		 M115.619,15.126l-0.111-0.115c-0.657,0.076-2.26,0.115-4.811,0.115h-4.532c-2.764,0-4.368-0.038-4.811-0.115l-0.099,0.115
		c0.084,0.574,0.126,1.132,0.134,1.667l0.023,1.916l0.122,0.115h0.706l0.111-0.115c0.015-0.417,0.049-0.826,0.103-1.22
		c0.042-0.359,0.099-0.596,0.168-0.719c0.042-0.065,0.126-0.122,0.244-0.168c0.225-0.08,1.005-0.122,2.337-0.122h1.6
		c0.023,0.233,0.035,1.269,0.035,3.116v6.362c0,1.778-0.05,2.933-0.145,3.472c-0.038,0.218-0.164,0.356-0.382,0.413
		c-0.111,0.03-0.546,0.069-1.306,0.115l-0.115,0.111v0.761l0.103,0.103c0.699-0.046,1.848-0.069,3.444-0.069
		c1.558,0,2.707,0.023,3.444,0.069l0.114-0.115v-0.749l-0.114-0.111c-0.76-0.046-1.195-0.084-1.306-0.115
		c-0.218-0.057-0.344-0.195-0.382-0.413c-0.095-0.539-0.145-1.695-0.145-3.472v-6.362c0-1.815,0.007-2.852,0.023-3.116h1.497
		c1.251,0,1.955,0.012,2.104,0.035c0.39,0.053,0.626,0.229,0.718,0.527c0.042,0.165,0.084,0.723,0.122,1.679l0.122,0.103h0.706
		l0.111-0.115l0.023-1.87C115.481,16.25,115.527,15.677,115.619,15.126L115.619,15.126z M130.057,18.563
		c0,1.541-0.523,2.742-1.573,3.602c-1.046,0.864-2.23,1.292-3.551,1.292c-0.447,0-0.897-0.05-1.356-0.156
		c-0.065-0.199-0.195-0.47-0.39-0.803l0.233-0.248c0.317,0.103,0.603,0.157,0.863,0.157c0.752,0,1.359-0.268,1.814-0.799
		c0.454-0.535,0.68-1.285,0.68-2.248c0-2.084-0.936-3.124-2.806-3.124c-0.225,0-0.672,0.046-1.344,0.134
		c-0.065,0.18-0.099,1.401-0.099,3.663v5.927c0,1.776,0.05,2.933,0.145,3.472c0.038,0.218,0.164,0.356,0.382,0.413
		c0.065,0.015,0.577,0.054,1.531,0.115l0.122,0.122v0.738l-0.111,0.115c-1.019-0.046-2.245-0.069-3.669-0.069
		c-1.604,0-2.753,0.023-3.444,0.069l-0.111-0.103V30.08l0.122-0.122c0.752-0.046,1.184-0.084,1.298-0.115
		c0.214-0.057,0.34-0.195,0.378-0.413c0.099-0.539,0.145-1.694,0.145-3.472v-5.927c0-1.778-0.046-2.936-0.145-3.472
		c-0.038-0.218-0.164-0.355-0.378-0.417c-0.114-0.027-0.55-0.065-1.31-0.111l-0.111-0.122v-0.742l0.122-0.111
		c0.729,0.046,1.852,0.069,3.368,0.069c0.626,0,1.528-0.012,2.707-0.034c1.175-0.022,1.856-0.035,2.035-0.035
		c2.043,0,3.371,0.52,3.982,1.556C129.9,17.152,130.057,17.802,130.057,18.563z"/>
	<path style="fill:#FFFFFF;" d="M153.525,26.084c0,1.644-0.661,2.902-1.982,3.778c-1.123,0.753-2.555,1.128-4.296,1.128
		c-0.347,0-1.032-0.017-2.047-0.054c-0.61-0.022-1.127-0.035-1.543-0.035c-0.367,0-1.524,0.023-3.478,0.069l-0.099-0.08v-0.784
		l0.111-0.111c0.76-0.046,1.195-0.084,1.31-0.115c0.214-0.057,0.34-0.195,0.378-0.413c0.099-0.539,0.145-1.694,0.145-3.472V20.07
		c0-1.778-0.046-2.937-0.145-3.472c-0.038-0.218-0.164-0.355-0.378-0.417c-0.114-0.027-0.55-0.065-1.31-0.111l-0.111-0.111v-0.761
		l0.111-0.103l6.052,0.069l4.62-0.023c0.527-0.015,0.978-0.046,1.34-0.092l0.126,0.115c-0.092,0.516-0.141,1.071-0.149,1.667
		l-0.019,1.916l-0.114,0.115h-0.714l-0.115-0.103c-0.019-0.432-0.042-0.864-0.065-1.3c-0.084-0.573-0.283-0.917-0.603-1.028
		c-0.233-0.084-0.995-0.122-2.283-0.122h-2.932c-0.065,1.851-0.099,2.996-0.099,3.426v2.141c2.035,0,3.497,0.076,4.387,0.233
		C152.223,22.571,153.525,23.897,153.525,26.084L153.525,26.084z M150.145,26.298c0-1.067-0.313-1.889-0.939-2.466
		c-0.557-0.505-1.291-0.78-2.192-0.818c-0.374-0.011-0.966-0.019-1.779-0.019v6.71c0.351,0.05,0.775,0.076,1.275,0.076
		c0.851,0,1.47-0.069,1.856-0.203c0.561-0.199,1.008-0.604,1.344-1.208C150.001,27.839,150.145,27.151,150.145,26.298
		L150.145,26.298z M172.534,30.856l-0.099,0.115c-1.657-0.046-2.654-0.069-2.997-0.069c-1.371,0-2.646,0.023-3.826,0.069
		l-0.099-0.115v-0.704l0.111-0.126l0.974-0.054c0.409-0.023,0.615-0.168,0.615-0.436c0-0.157-0.103-0.509-0.313-1.055l-0.905-2.363
		c-1.031-0.015-2.081-0.023-3.158-0.023c-0.58,0-1.443,0.008-2.592,0.023l-0.492,1.365c-0.374,1.04-0.561,1.69-0.561,1.95
		c0,0.283,0.176,0.451,0.527,0.505c0.195,0.031,0.573,0.061,1.142,0.088l0.111,0.115v0.715l-0.111,0.115
		c-1.378-0.046-2.268-0.069-2.661-0.069c-0.305,0-1.065,0.023-2.272,0.069l-0.111-0.103v-0.726l0.122-0.115
		c0.767-0.042,1.237-0.195,1.413-0.459c0.176-0.26,0.836-1.816,1.974-4.669l2.921-7.314c0.218-0.57,0.546-1.422,0.985-2.566h1.588
		l5.93,13.967c0.229,0.531,0.439,0.83,0.626,0.895c0.244,0.092,0.599,0.138,1.061,0.138l0.099,0.122V30.856L172.534,30.856z
		 M165.443,24.83l-2.394-5.869l-2.295,5.869c0.615,0.023,1.409,0.035,2.387,0.035C164.088,24.865,164.855,24.853,165.443,24.83
		L165.443,24.83z M190.638,30.891l-0.099,0.08c-1.283-0.046-2.47-0.069-3.559-0.069c-1.565,0-2.684,0.023-3.356,0.069l-0.099-0.08
		v-0.784l0.111-0.111c0.76-0.046,1.195-0.084,1.31-0.115c0.214-0.057,0.344-0.195,0.378-0.413c0.099-0.539,0.145-1.694,0.145-3.472
		v-3.785l-0.042-5.491l-0.271-0.012c-0.393,0.642-0.966,1.595-1.722,2.856l-1.989,3.326c-1.611,2.695-2.635,4.55-3.066,5.555
		c-0.187,0.444-0.279,0.734-0.279,0.876c0,0.252,0.221,0.428,0.672,0.528c0.321,0.065,0.626,0.115,0.916,0.145l0.111,0.111v0.784
		l-0.111,0.08c-1.088-0.046-2.104-0.069-3.043-0.069c-0.5,0-1.325,0.023-2.474,0.069l-0.111-0.08v-0.784l0.111-0.111l0.718-0.134
		c0.218-0.046,0.393-0.103,0.527-0.168c0.229-0.122,0.577-0.512,1.039-1.178c0.924-1.338,1.68-2.462,2.26-3.372l5.212-8.243
		c0.061-0.1,0.095-0.168,0.103-0.214c0-0.18-0.996-0.386-2.99-0.627l-0.111-0.099v-0.795l0.111-0.069
		c0.359,0.023,1.661,0.046,3.906,0.069c1.795,0.015,3.028-0.008,3.692-0.069l0.145,0.092c-0.008,0.237-0.023,0.994-0.046,2.271
		c-0.038,1.87-0.057,3.453-0.057,4.753l0.011,3.785c0,1.778,0.05,2.933,0.145,3.472c0.038,0.218,0.164,0.356,0.382,0.413
		c0.111,0.031,0.546,0.069,1.31,0.115l0.111,0.111V30.891L190.638,30.891z M205.062,27.159c-0.164,1.093-0.244,2.324-0.244,3.697
		l-0.114,0.115l-8.133-0.069c-1.356,0-2.314,0.023-2.871,0.069l-0.114-0.115v-0.314l0.057-0.134c0.55-0.352,0.852-0.57,0.894-0.661
		c0.069-0.142,0.111-0.639,0.122-1.487l0.034-2.512V20.07c0-1.778-0.046-2.937-0.145-3.472c-0.038-0.218-0.164-0.355-0.378-0.417
		c-0.114-0.027-0.55-0.065-1.31-0.111l-0.111-0.111v-0.761l0.111-0.103c0.752,0.046,1.917,0.069,3.49,0.069
		c1.401,0,4.066-0.023,7.999-0.069l0.122,0.092l-0.145,1.243c-0.046,0.394-0.08,0.73-0.103,1.009l-0.076,1.04l-0.111,0.122h-0.649
		l-0.115-0.111c-0.008-1.017-0.065-1.594-0.179-1.736c-0.08-0.107-0.481-0.187-1.199-0.249c-0.722-0.057-1.352-0.088-1.898-0.088
		c-0.649,0-1.306,0.027-1.97,0.077c-0.08,0.784-0.122,1.874-0.122,3.261v2.317c0.588,0.038,1.065,0.057,1.432,0.057l1.466-0.011
		c0.687-0.008,1.073-0.061,1.164-0.168c0.119-0.134,0.195-0.638,0.233-1.51l0.111-0.115h0.695l0.111,0.115
		c-0.027,0.834-0.042,1.602-0.042,2.294c0,0.757,0.015,1.579,0.042,2.478l-0.111,0.1h-0.749l-0.114-0.111
		c0-0.86-0.057-1.369-0.176-1.529c-0.122-0.161-0.481-0.267-1.088-0.321c-0.455-0.034-0.939-0.053-1.451-0.053
		c-0.546,0-1.054,0.019-1.524,0.053v3.418c0,0.979,0.019,1.927,0.058,2.845h1.52c2.176,0,3.513-0.084,4.005-0.256
		c0.08-0.031,0.141-0.073,0.18-0.126c0.073-0.103,0.145-0.325,0.214-0.669l0.267-1.392l0.111-0.122h0.683L205.062,27.159
		L205.062,27.159z M221.578,15.164c-0.092,0.551-0.137,1.124-0.145,1.713l-0.023,1.87l-0.111,0.115h-0.706l-0.122-0.103
		c-0.038-0.956-0.08-1.514-0.122-1.679c-0.091-0.298-0.328-0.474-0.718-0.528c-0.149-0.023-0.852-0.034-2.104-0.034h-1.497
		c-0.015,0.264-0.023,1.3-0.023,3.116v6.362c0,1.778,0.05,2.933,0.145,3.472c0.038,0.218,0.164,0.356,0.382,0.413
		c0.111,0.031,0.546,0.069,1.306,0.115l0.114,0.111v0.749l-0.114,0.115c-0.737-0.046-1.886-0.069-3.444-0.069
		c-1.596,0-2.745,0.023-3.444,0.069l-0.103-0.103v-0.761l0.115-0.111c0.76-0.046,1.195-0.084,1.306-0.115
		c0.218-0.057,0.344-0.195,0.382-0.413c0.095-0.539,0.145-1.694,0.145-3.472v-6.362c0-1.847-0.011-2.883-0.034-3.116h-1.6
		c-1.333,0-2.112,0.042-2.337,0.122c-0.118,0.046-0.202,0.103-0.245,0.168c-0.069,0.122-0.126,0.36-0.168,0.719
		c-0.054,0.394-0.088,0.803-0.103,1.22l-0.111,0.115h-0.706l-0.122-0.115l-0.023-1.916c-0.008-0.535-0.05-1.094-0.134-1.667
		l0.099-0.115c0.443,0.077,2.047,0.115,4.811,0.115h4.532c2.551,0,4.154-0.038,4.811-0.115L221.578,15.164L221.578,15.164z
		 M240.149,30.856l-0.1,0.115c-1.657-0.046-2.654-0.069-2.997-0.069c-1.371,0-2.646,0.023-3.826,0.069l-0.099-0.115v-0.704
		l0.111-0.126l0.974-0.054c0.409-0.023,0.615-0.168,0.615-0.436c0-0.157-0.103-0.509-0.313-1.055l-0.905-2.363
		c-1.031-0.015-2.081-0.023-3.158-0.023c-0.58,0-1.443,0.008-2.593,0.023l-0.493,1.365c-0.374,1.04-0.561,1.69-0.561,1.95
		c0,0.283,0.175,0.451,0.527,0.505c0.195,0.031,0.573,0.061,1.142,0.088l0.111,0.115v0.715l-0.111,0.115
		c-1.379-0.046-2.268-0.069-2.661-0.069c-0.306,0-1.065,0.023-2.272,0.069l-0.111-0.103v-0.726l0.122-0.115
		c0.767-0.042,1.237-0.195,1.413-0.459c0.176-0.26,0.836-1.816,1.974-4.669l2.921-7.314c0.218-0.57,0.546-1.422,0.985-2.566h1.588
		l5.93,13.967c0.229,0.531,0.439,0.83,0.626,0.895c0.245,0.092,0.6,0.138,1.061,0.138l0.1,0.122V30.856L240.149,30.856z
		 M233.058,24.83l-2.394-5.869l-2.295,5.869c0.615,0.023,1.409,0.035,2.387,0.035C231.703,24.865,232.471,24.853,233.058,24.83z"/>
	<path style="fill:#FFFFFF;" d="M168.043,41.916l0.058,0.053l0.058,0.053v0.327v0.327l-0.069,0.053l-0.069,0.053
		c-0.348,0.011-0.629,0.029-0.84,0.056c-0.211,0.026-0.354,0.061-0.427,0.105c-0.073,0.042-0.129,0.125-0.167,0.248
		c-0.038,0.123-0.06,0.287-0.063,0.489l-0.016,0.476l-0.016,0.477c-0.003,0.16-0.006,0.427-0.008,0.799
		c-0.002,0.372-0.003,0.85-0.003,1.434c0,0.568,0.003,1.084,0.008,1.55c0.005,0.466,0.012,0.881,0.021,1.246
		c0.009,0.365,0.022,0.651,0.039,0.859c0.017,0.208,0.038,0.336,0.063,0.385c0.024,0.051,0.058,0.095,0.101,0.132
		c0.044,0.037,0.096,0.069,0.158,0.094c0.062,0.025,0.191,0.047,0.386,0.066c0.195,0.019,0.457,0.036,0.786,0.051l0.058,0.053
		l0.058,0.053v0.327v0.327l-0.053,0.055l-0.053,0.055c-0.339-0.025-0.753-0.045-1.241-0.057c-0.488-0.013-1.051-0.019-1.69-0.019
		c-0.595,0-1.135,0.006-1.621,0.019c-0.486,0.013-0.917,0.032-1.295,0.057l-0.055-0.055l-0.055-0.055V51.68v-0.327l0.055-0.053
		l0.055-0.053c0.334-0.015,0.6-0.032,0.797-0.052c0.198-0.02,0.327-0.043,0.389-0.069c0.06-0.027,0.111-0.061,0.153-0.101
		c0.042-0.04,0.075-0.085,0.099-0.136c0.022-0.051,0.042-0.169,0.059-0.353c0.017-0.184,0.03-0.435,0.039-0.753
		c0.011-0.318,0.019-0.718,0.025-1.201c0.006-0.483,0.008-1.049,0.008-1.697v-1.888v-1.888c-0.603,0.539-1.217,1.095-1.974,1.777
		c-0.757,0.683-1.659,1.492-2.837,2.537c-0.019,0.028-0.028,0.425-0.032,0.874c-0.003,0.45-0.001,0.954,0.005,1.195
		c0.004,0.196,0.001,0.459,0.01,0.72c0.01,0.26,0.033,0.518,0.091,0.7l0,0v0l0.003,0.002l0.003,0.002
		c0.024,0.051,0.058,0.095,0.101,0.132c0.043,0.038,0.096,0.069,0.158,0.094c0.062,0.025,0.191,0.047,0.386,0.066
		c0.195,0.019,0.457,0.036,0.786,0.051l0.059,0.053l0.058,0.053v0.326v0.327l-0.053,0.055l-0.053,0.055
		c-0.339-0.026-0.753-0.045-1.241-0.058c-0.488-0.013-1.051-0.019-1.69-0.019c-0.595,0-1.135,0.006-1.621,0.019
		c-0.486,0.013-0.918,0.032-1.295,0.058l-0.055-0.055l-0.055-0.055v-0.327v-0.326l0.005-0.005l0.004-0.004v-0.006v-0.006
		l0.047-0.049l0.047-0.049c0.321-0.015,0.577-0.03,0.769-0.048c0.191-0.017,0.318-0.037,0.38-0.058
		c0.062-0.022,0.115-0.049,0.161-0.083c0.044-0.034,0.08-0.074,0.106-0.121c0.027-0.046,0.05-0.149,0.069-0.308
		c0.019-0.16,0.033-0.376,0.044-0.648c0.011-0.272,0.019-0.515,0.025-0.728c0.005-0.213,0.008-0.396,0.008-0.55
		c0-1.166-0.001-2.122-0.003-2.869c-0.002-0.747-0.006-1.284-0.012-1.613c-0.005-0.327-0.018-0.585-0.037-0.775
		c-0.019-0.19-0.045-0.311-0.076-0.364c-0.033-0.051-0.075-0.094-0.126-0.129c-0.051-0.035-0.112-0.063-0.181-0.082
		c-0.069-0.02-0.197-0.038-0.383-0.053c-0.186-0.015-0.431-0.028-0.734-0.039l-0.053-0.058l-0.053-0.058v-0.327V42.01l0.053-0.053
		l0.053-0.053c0.343,0.024,0.757,0.042,1.244,0.054c0.486,0.012,1.045,0.019,1.676,0.019c0.646,0,1.213-0.006,1.701-0.019
		c0.488-0.012,0.898-0.031,1.23-0.054l0.053,0.053l0.053,0.053v0.326v0.327l-0.058,0.058l-0.059,0.058
		c-0.318,0.015-0.571,0.03-0.761,0.047c-0.19,0.017-0.316,0.037-0.378,0.059c-0.062,0.022-0.115,0.047-0.158,0.077
		c-0.044,0.03-0.079,0.064-0.104,0.102c-0.026,0.036-0.047,0.133-0.067,0.29c-0.019,0.156-0.036,0.373-0.05,0.648
		c-0.024,0.454-0.032,0.752-0.033,1.05c-0.002,0.298,0.002,0.597,0.002,1.052c1.11-0.972,1.8-1.565,2.457-2.142
		c0.656-0.577,1.28-1.139,2.258-2.047c0.25,0.02,0.527,0.036,0.83,0.046c0.303,0.011,0.632,0.016,0.988,0.016
		c0.359,0,0.754-0.006,1.184-0.016C167.081,41.951,167.545,41.935,168.043,41.916z"/>
	<g>
		<path style="fill-rule:evenodd;clip-rule:evenodd;fill:#FFFFFF;" d="M24.367,0.088c-0.736-0.483-2.421,1.059-3.686,3.846
			c-0.584,1.285-1.673,4.181-0.686,4.665c0.964,0.472,2.798-1.911,3.625-3.608C24.182,3.837,25.695,0.96,24.367,0.088z"/>
		<path style="fill-rule:evenodd;clip-rule:evenodd;fill:#FFFFFF;" d="M47.738,19.435c-0.736-0.483-2.421,1.059-3.686,3.846
			c-0.584,1.285-1.673,4.181-0.686,4.665c0.964,0.472,2.798-1.911,3.625-3.608C47.554,23.184,49.066,20.307,47.738,19.435z"/>
		<path style="fill-rule:evenodd;clip-rule:evenodd;fill:#FFFFFF;" d="M46.207,2.075c1.313-0.118,0.863,0.8,0.129,0.966
			C41.13,5.227,26,9.168,25.355,14.758c-0.001,2.33,2.089,3.328,3.321,3.687c1.7,0.593,1.958,0.304,3.445,0.886
			c1.298,0.481,1.945,2.231,0.88,3.183c-4.269,3.656-10.185,6.002-14.414,10.551c-3.897,4.191-6.113,10.051-3.48,14.632
			c2.532,4.405,8.003,6.533,13.44,5.897c2.46-0.303,4.212-0.95,6.349-1.526c0.859-0.173,0.921,0.817-0.067,1.438
			c-1.69,0.984-3.23,1.858-7.25,2.548c-5.893,0.487-11.424-1.728-14.393-5.397c-1.335-1.744-2.735-3.978-2.996-6.477
			c-0.245-2.347,0.088-5.23,1.455-7.956c1.261-2.516,2.924-4.675,5.699-6.865c3.995-3.153,6.958-4.41,7.92-5.92
			c1.065-1.61,0.665-2.694-0.291-3.955c-0.872-1.041-1.981-1.905-2.617-2.812c-0.977-1.394-1.38-2.883,0.549-4.794
			c1.873-1.573,3.936-3.15,7.259-4.735C36.36,4.187,42.562,2.635,46.207,2.075z"/>
		<path style="fill-rule:evenodd;clip-rule:evenodd;fill:#FFFFFF;" d="M1.424,31.307c-1.226,2.184-1.687,3.538-1.278,3.778
			c0.256,0.151,0.732-0.167,1.253-1.042c0.559-0.939,1.435-2.177,2.576-3.742c4.164-5.714,8.563-9.657,14.749-12.95
			c0.554-0.301,0.323-0.81,0.212-1.47c-0.169-1.003-0.001-1.875-1.054-1.221C10.991,18.617,5.294,24.597,1.424,31.307z"/>
		<path style="fill-rule:evenodd;clip-rule:evenodd;fill:#FFFFFF;" d="M19.055,41.493c-2.162,1.304-2.997,2.198-2.766,2.625
			c0.145,0.268,0.611,0.303,1.503-0.204c0.957-0.544,2.338-1.189,4.114-1.987c6.692-2.878,12.309-4.527,17.312-4.701
			c2.935-0.102,4.336,1.281,4.602,3.242c0.27,1.989-0.84,4.121-2.349,5.814c-1.053,1.181-1.713,1.667-2.485,2.277
			c-1.101,0.871-0.821,1.526-0.019,1.238c0.724-0.26,2.299-1.409,3.665-2.626c2.3-2.049,4.172-5.045,3.921-7.616
			C45.429,28.069,23.487,38.989,19.055,41.493z"/>
		<path style="fill-rule:evenodd;clip-rule:evenodd;fill:#FFFFFF;" d="M25.273,73.853c-2.558,0.181-3.743-0.105-3.778-0.721
			c-0.022-0.386,0.353-0.743,1.377-0.808c1.099-0.07,2.611-0.322,4.537-0.68c2.133-0.441,10.601-1.907,15.616-5.33
			c2.956-2.018,4.469-5.013,3.651-8.082c-1.116-4.188-5.673-5.02-8.424-5.379c-1.397-0.182-1.523-1.135-0.681-1.315
			c3.594-0.772,11.12,0.12,12.517,6.246c1.722,7.553-5.114,12.032-12.656,13.99C32.418,73.076,28.639,73.58,25.273,73.853z"/>
		<path style="fill-rule:evenodd;clip-rule:evenodd;fill:#FFFFFF;" d="M5.547,66.271c-1.878,3.699-3.853,8.067-3.293,8.616
			c0.326,0.319,1.191,0.064,2.426-2.121c1.089-1.928,3.166-5.456,5.2-8.785c2.551-4.038,6.524-10.072,14.944-17.871
			c7.261-6.725,16.822-12.8,17.249-13.45c2.189-3.333-1.605-1.692-3.371-0.645C23.035,41.246,14.044,49.538,5.547,66.271z"/>
	</g>
</g>
</svg>
