<?xml version="1.0" encoding="iso-8859-1"?>
<!-- Generator: Adobe Illustrator 17.1.0, SVG Export Plug-In . SVG Version: 6.00 Build 0)  -->
<!DOCTYPE svg PUBLIC "-//W3C//DTD SVG 1.1//EN" "http://www.w3.org/Graphics/SVG/1.1/DTD/svg11.dtd">
<svg version="1.1" id="Layer_1" xmlns="http://www.w3.org/2000/svg" xmlns:xlink="http://www.w3.org/1999/xlink" x="0px" y="0px"
	 viewBox="0 0 164.38 75" style="enable-background:new 0 0 164.38 75;" xml:space="preserve">
<g>
	<path style="fill:#FFFFFF;" d="M89.765,48.093c0,2.702-1.309,4.797-3.925,6.282c-1.292,0.732-2.956,1.099-4.991,1.099
		c-0.646,0-1.179-0.006-1.599-0.017l-3.86-0.08c-1.378,0-2.444,0.032-3.198,0.097l-0.161-0.161V54.86l0.081-0.193
		c0.797-0.506,1.228-0.823,1.292-0.953c0.097-0.193,0.156-0.909,0.178-2.148l0.048-3.617v-8.189c0-2.562-0.069-4.231-0.21-5.007
		c-0.054-0.312-0.236-0.512-0.549-0.598c-0.161-0.043-0.791-0.097-1.89-0.161l-0.161-0.162v-1.098l0.161-0.146
		c0.958,0.064,2.605,0.097,4.942,0.097c1.486,0,2.826-0.026,4.021-0.081c0.947-0.043,1.75-0.064,2.407-0.064
		c3.004,0,4.975,0.684,5.911,2.052c0.495,0.721,0.743,1.55,0.743,2.487c0,1.528-0.598,2.805-1.793,3.827
		c-0.571,0.485-1.163,0.846-1.776,1.083c-0.711,0.269-1.486,0.5-2.326,0.694C87.548,42.876,89.765,44.679,89.765,48.093z
		 M84.129,37.869c0-2.38-1.238-3.569-3.715-3.569c-0.818,0-1.513,0.043-2.084,0.129c-0.043,1.131-0.064,2.176-0.064,3.134v4.458
		c0.248,0.021,0.743,0.032,1.486,0.032c1.948,0,3.23-0.625,3.844-1.874C83.951,39.458,84.129,38.687,84.129,37.869z M84.823,48.593
		c0-3.23-1.695-4.846-5.088-4.846c-0.431,0-0.921,0.017-1.47,0.049v7.479c0,0.808,0.021,1.599,0.064,2.374
		c0.441,0.075,1.061,0.113,1.857,0.113c1.508,0,2.671-0.474,3.489-1.422C84.441,51.436,84.823,50.187,84.823,48.593z"/>
	<path style="fill:#FFFFFF;" d="M107.42,55.281l-0.178,0.177c-0.904-0.054-1.943-0.08-3.117-0.08c-0.915,0-1.793,0.026-2.633,0.08
		l-0.146-0.177l0.146-2.165l-3.134,2.391c-0.247,0.183-0.603,0.296-1.065,0.339c-0.184,0.021-0.398,0.032-0.646,0.032
		c-1.195,0-2.113-0.36-2.754-1.082c-0.641-0.721-0.961-1.717-0.961-2.987c0-1.681,0.533-2.87,1.6-3.57
		c1.151-0.764,3.473-1.453,6.961-2.067c0-1.712-0.452-2.858-1.356-3.44c-0.55-0.354-1.206-0.532-1.971-0.532
		c-0.84,0-1.502,0.172-1.986,0.517l-0.614,1.502l-0.21,0.113l-0.823-0.194l-0.113-0.226l0.08-1.906
		c1.777-1.313,3.112-2.057,4.006-2.229c0.377-0.075,0.867-0.113,1.47-0.113c2.121,0,3.635,0.555,4.539,1.664
		c0.656,0.807,0.985,2.046,0.985,3.715c0,0.409-0.017,1.065-0.049,1.97c-0.054,1.508-0.081,2.515-0.081,3.021
		c0,1.626,0.027,2.663,0.081,3.109c0.054,0.447,0.181,0.729,0.38,0.848c0.199,0.119,0.676,0.188,1.43,0.21l0.161,0.178V55.281z
		 M101.492,51.517v-3.974c-1.776,0.388-2.975,0.806-3.594,1.252c-0.619,0.447-0.929,1.128-0.929,2.043
		c0,1.465,0.641,2.197,1.922,2.197C99.979,53.036,100.846,52.529,101.492,51.517z"/>
	<path style="fill:#FFFFFF;" d="M118.273,55.329l-0.161,0.162c-1.023-0.076-2.498-0.113-4.426-0.113s-3.397,0.037-4.409,0.113
		l-0.162-0.162v-0.985l0.162-0.161c1.033-0.032,1.674-0.113,1.922-0.242c0.215-0.097,0.334-0.355,0.355-0.775
		c0.075-1.399,0.113-3.85,0.113-7.35v-5.41c0-2.262-0.038-4.092-0.113-5.492c-0.021-0.397-0.141-0.659-0.355-0.783
		c-0.216-0.123-0.84-0.202-1.874-0.234l-0.161-0.178V32.83l0.161-0.178c2.078-0.227,4.162-0.673,6.251-1.341l0.339,0.194
		c0,0.29-0.016,0.823-0.048,1.599c-0.108,2.573-0.162,5.422-0.162,8.544v4.167c0,3.5,0.038,5.95,0.113,7.35
		c0.021,0.42,0.14,0.679,0.355,0.775c0.247,0.129,0.889,0.21,1.922,0.242l0.178,0.161V55.329z"/>
	<path style="fill:#FFFFFF;" d="M129.289,55.329l-0.161,0.162c-1.023-0.076-2.498-0.113-4.426-0.113s-3.397,0.037-4.409,0.113
		l-0.162-0.162v-0.985l0.162-0.161c1.033-0.032,1.674-0.113,1.922-0.242c0.215-0.097,0.334-0.355,0.355-0.775
		c0.075-1.399,0.113-3.85,0.113-7.35v-5.41c0-2.262-0.038-4.092-0.113-5.492c-0.021-0.397-0.141-0.659-0.355-0.783
		c-0.216-0.123-0.84-0.202-1.874-0.234l-0.161-0.178V32.83l0.161-0.178c2.078-0.227,4.162-0.673,6.251-1.341l0.339,0.194
		c0,0.29-0.016,0.823-0.048,1.599c-0.108,2.573-0.162,5.422-0.162,8.544v4.167c0,3.5,0.038,5.95,0.113,7.35
		c0.021,0.42,0.14,0.679,0.355,0.775c0.247,0.129,0.889,0.21,1.922,0.242l0.178,0.161V55.329z"/>
	<path style="fill:#FFFFFF;" d="M145.586,46.316c0,0.184-0.005,0.458-0.016,0.824l-0.178,0.226
		c-1.421,0.388-3.306,0.582-5.653,0.582c-0.42,0-1.056,0.008-1.905,0.023c-0.852,0.017-1.492,0.024-1.923,0.024
		c0.065,1.583,0.555,2.892,1.47,3.925c0.959,1.109,2.208,1.664,3.748,1.664c1.033,0,2.261-0.355,3.683-1.066l0.388,0.469
		l-0.711,1.599c-1.572,1.002-3.279,1.502-5.12,1.502c-2.423,0-4.305-0.684-5.646-2.051c-1.34-1.367-2.011-3.316-2.011-5.847
		c0-3.005,0.716-5.062,2.148-6.17c1.981-1.529,3.86-2.294,5.637-2.294c1.928,0,3.419,0.555,4.475,1.664
		C145.048,42.532,145.586,44.174,145.586,46.316z M141.371,45.896c0-2.907-0.905-4.36-2.714-4.36c-1.906,0-2.858,1.442-2.858,4.328
		v0.355c0.624,0.097,1.733,0.146,3.327,0.146c0.829,0,1.571-0.049,2.229-0.146C141.365,46.069,141.371,45.961,141.371,45.896z"/>
	<path style="fill:#FFFFFF;" d="M157.506,53.261c-0.075,0.086-0.307,0.312-0.694,0.679c-0.636,0.603-1.179,1.152-1.631,1.647
		c-0.528,0.172-1.062,0.258-1.6,0.258c-1.497,0-2.59-0.436-3.278-1.308c-0.291-0.377-0.485-0.813-0.582-1.309
		c-0.107-0.592-0.156-1.367-0.146-2.326l0.049-3.86v-4.037h-0.437l-0.855,0.032h-0.662l-0.178-0.146v-0.42l0.129-0.242
		c0.194-0.13,0.495-0.323,0.904-0.582c0.485-0.301,0.851-0.554,1.099-0.759v-2.196c0-0.915-0.043-1.885-0.129-2.907
		c0.808-0.259,1.462-0.487,1.962-0.687c0.501-0.199,1.209-0.525,2.124-0.978l0.42,0.323c-0.129,1.335-0.221,2.53-0.274,3.585
		l-0.146,2.795h0.533c1.174,0,2.186-0.038,3.036-0.113l0.178,0.178l-0.226,1.89l-0.162,0.161h-3.359v5.476
		c0,1.756,0.021,2.789,0.064,3.102c0.054,0.452,0.245,0.818,0.573,1.099c0.329,0.279,0.772,0.42,1.333,0.42
		c0.441,0,0.975-0.119,1.599-0.355L157.506,53.261z"/>
</g>
<path style="fill-rule:evenodd;clip-rule:evenodd;fill:#FFFFFF;" d="M25.768,1.456c-0.723-0.474-2.377,1.04-3.618,3.776
	c-0.573,1.262-1.643,4.105-0.673,4.579c0.946,0.463,2.747-1.876,3.559-3.542C25.587,5.137,27.072,2.312,25.768,1.456z"/>
<path style="fill-rule:evenodd;clip-rule:evenodd;fill:#FFFFFF;" d="M48.712,20.45c-0.723-0.474-2.377,1.04-3.618,3.776
	c-0.573,1.262-1.643,4.105-0.673,4.58c0.946,0.463,2.747-1.876,3.559-3.543C48.531,24.131,50.016,21.306,48.712,20.45z"/>
<path style="fill-rule:evenodd;clip-rule:evenodd;fill:#FFFFFF;" d="M47.209,3.407c1.289-0.116,0.847,0.786,0.127,0.949
	c-5.111,2.146-19.965,6.015-20.599,11.503c-0.002,2.288,2.05,3.267,3.26,3.62c1.669,0.582,1.923,0.298,3.382,0.87
	c1.274,0.472,1.909,2.19,0.864,3.125c-4.191,3.589-9.999,5.892-14.151,10.358c-3.825,4.114-6.001,9.867-3.417,14.365
	c2.486,4.325,7.857,6.414,13.195,5.79c2.415-0.297,4.135-0.932,6.233-1.498c0.844-0.17,0.904,0.802-0.065,1.412
	c-1.659,0.966-3.171,1.824-7.118,2.501c-5.785,0.478-11.215-1.696-14.13-5.298c-1.311-1.712-2.685-3.905-2.941-6.358
	c-0.24-2.305,0.087-5.135,1.428-7.811c1.238-2.47,2.87-4.59,5.595-6.74c3.921-3.095,6.83-4.329,7.775-5.812
	c1.046-1.58,0.653-2.645-0.285-3.883c-0.856-1.022-1.945-1.87-2.569-2.761c-0.959-1.368-1.355-2.83,0.539-4.706
	c1.839-1.544,3.864-3.092,7.127-4.648C37.541,5.481,43.631,3.957,47.209,3.407z"/>
<path style="fill-rule:evenodd;clip-rule:evenodd;fill:#FFFFFF;" d="M3.244,32.105c-1.204,2.144-1.656,3.473-1.255,3.709
	c0.252,0.148,0.719-0.164,1.23-1.023c0.549-0.922,1.409-2.137,2.529-3.674c4.088-5.61,8.406-9.481,14.48-12.714
	c0.544-0.295,0.318-0.795,0.208-1.443c-0.166-0.985-0.001-1.84-1.035-1.199C12.636,19.647,7.044,25.518,3.244,32.105z"/>
<path style="fill-rule:evenodd;clip-rule:evenodd;fill:#FFFFFF;" d="M20.553,42.105c-2.122,1.28-2.943,2.158-2.716,2.577
	c0.142,0.263,0.6,0.298,1.475-0.2c0.94-0.534,2.296-1.167,4.039-1.951c6.569-2.826,12.084-4.444,16.996-4.615
	c2.881-0.1,4.257,1.257,4.518,3.182c0.265,1.952-0.824,4.046-2.306,5.708c-1.034,1.159-1.682,1.636-2.44,2.236
	c-1.081,0.855-0.806,1.498-0.019,1.215c0.711-0.255,2.257-1.383,3.598-2.577c2.258-2.011,4.096-4.953,3.849-7.477
	C46.445,28.927,24.904,39.647,20.553,42.105z"/>
<path style="fill-rule:evenodd;clip-rule:evenodd;fill:#FFFFFF;" d="M26.658,73.874c-2.512,0.177-3.675-0.103-3.709-0.708
	c-0.021-0.379,0.346-0.729,1.352-0.794c1.079-0.069,2.563-0.317,4.455-0.667c2.094-0.432,10.407-1.872,15.331-5.232
	c2.902-1.981,4.388-4.922,3.585-7.935c-1.096-4.111-5.569-4.928-8.27-5.281c-1.371-0.179-1.495-1.114-0.669-1.291
	c3.528-0.758,10.917,0.118,12.288,6.132c1.69,7.415-5.021,11.813-12.425,13.735C33.672,73.111,29.963,73.606,26.658,73.874z"/>
<path style="fill-rule:evenodd;clip-rule:evenodd;fill:#FFFFFF;" d="M7.292,66.43c-1.844,3.632-3.783,7.92-3.233,8.459
	c0.32,0.314,1.169,0.063,2.381-2.083c1.069-1.893,3.109-5.356,5.105-8.624c2.504-3.964,6.404-9.888,14.671-17.544
	c7.128-6.602,16.514-12.566,16.934-13.204c2.149-3.272-1.576-1.661-3.309-0.633C24.461,41.863,15.633,50.003,7.292,66.43z"/>
<path style="fill:#FFFFFF;" d="M72.693,70.477l-0.067,0.07c-0.431-0.033-1.05-0.049-1.86-0.049c-0.811,0-1.427,0.016-1.854,0.049
	l-0.067-0.07v-0.415l0.067-0.067c0.436-0.014,0.704-0.046,0.809-0.102c0.09-0.039,0.139-0.148,0.148-0.324
	c0.033-0.589,0.049-1.221,0.049-1.895v-0.971c0-0.878-0.035-1.397-0.102-1.562c-0.037-0.09-0.134-0.146-0.292-0.169
	c-0.055-0.009-0.253-0.021-0.591-0.032l-0.067-0.07v-0.38l0.067-0.074c1.133-0.055,1.676-0.129,2.447-1.522
	c0.021-0.041,0.046-0.087,0.072-0.127c0.018-0.018,0.096-0.071,0.108-0.072c0.106-0.002,0.29,0.016,0.34,0.011
	c0.015,0.002,0.075,0.067,0.077,0.083c0.002,0.022-0.028,0.074-0.035,0.101c-0.064,0.237-0.168,0.592-0.215,0.899
	c-0.061,0.398-0.113,1.376-0.113,2.235v2.166c0,0.329,0.016,0.79,0.049,1.378c0.009,0.176,0.058,0.285,0.148,0.324
	c0.104,0.056,0.373,0.088,0.809,0.102l0.074,0.067V70.477L72.693,70.477z M88.77,64.815c-0.303-0.199-0.997,0.436-1.517,1.583
	c-0.24,0.529-0.689,1.721-0.282,1.92c0.397,0.194,1.152-0.787,1.493-1.485C88.694,66.359,89.317,65.174,88.77,64.815L88.77,64.815z
	 M60.825,67.479c0,0.741-0.211,1.392-0.633,1.956c-0.367,0.498-0.848,0.867-1.445,1.108c-0.546,0.225-1.197,0.337-1.954,0.337
	c-0.94,0-1.865-0.216-2.768-0.645l-0.08-0.149c0.124-0.514,0.188-1.248,0.188-2.197l0.067-0.066h0.429l0.062,0.066v0.156
	c0,0.25,0.025,0.58,0.08,0.993c0.161,0.287,0.45,0.534,0.867,0.739c0.433,0.216,0.888,0.323,1.358,0.323
	c0.885,0,1.5-0.31,1.839-0.927c0.177-0.319,0.264-0.647,0.264-0.988c0-0.573-0.241-0.984-0.72-1.229
	c-0.236-0.122-0.619-0.222-1.149-0.303c-1.195-0.183-1.982-0.415-2.358-0.693c-0.569-0.42-0.853-1.071-0.853-1.954
	c0-0.92,0.31-1.651,0.926-2.197c0.654-0.574,1.564-0.86,2.729-0.86c1.048,0,1.894,0.168,2.539,0.505l0.046,0.16
	c-0.106,0.532-0.172,1.174-0.192,1.922l-0.076,0.066h-0.422l-0.069-0.066c-0.011-0.539-0.034-0.888-0.067-1.048
	c-0.138-0.211-0.381-0.39-0.725-0.539c-0.367-0.151-0.75-0.227-1.149-0.227c-0.601,0-1.076,0.158-1.424,0.477
	c-0.328,0.301-0.491,0.688-0.491,1.163c0,0.514,0.186,0.892,0.557,1.135c0.241,0.156,0.812,0.305,1.713,0.45
	c0.094,0.014,0.355,0.057,0.787,0.135c0.264,0.044,0.507,0.108,0.732,0.195c0.452,0.17,0.793,0.429,1.021,0.777
	C60.701,66.436,60.825,66.91,60.825,67.479L60.825,67.479z M68.106,70.543l-0.073,0.076c-0.376-0.023-0.807-0.034-1.296-0.034
	c-0.381,0-0.748,0.012-1.096,0.034l-0.06-0.076l0.06-0.899l-1.303,0.993c-0.103,0.078-0.252,0.124-0.445,0.142
	c-0.076,0.009-0.165,0.014-0.268,0.014c-0.498,0-0.878-0.151-1.144-0.45c-0.268-0.301-0.401-0.716-0.401-1.243
	c0-0.699,0.223-1.195,0.665-1.486c0.479-0.319,1.445-0.605,2.897-0.86c0-0.711-0.188-1.188-0.564-1.431
	c-0.229-0.147-0.502-0.222-0.818-0.222c-0.351,0-0.626,0.073-0.828,0.216l-0.255,0.626l-0.087,0.046l-0.344-0.08l-0.046-0.094
	l0.034-0.794c0.738-0.546,1.293-0.856,1.665-0.927c0.156-0.032,0.36-0.048,0.612-0.048c0.88,0,1.511,0.232,1.887,0.693
	c0.273,0.337,0.41,0.851,0.41,1.546c0,0.17-0.007,0.443-0.021,0.819c-0.023,0.629-0.034,1.046-0.034,1.257
	c0,0.677,0.012,1.108,0.034,1.294c0.023,0.186,0.076,0.305,0.158,0.353c0.083,0.05,0.28,0.078,0.594,0.087l0.066,0.073V70.543
	L68.106,70.543z M65.641,68.979v-1.654c-0.739,0.16-1.236,0.335-1.495,0.521c-0.257,0.186-0.385,0.47-0.385,0.851
	c0,0.608,0.266,0.913,0.798,0.913C65.012,69.61,65.372,69.399,65.641,68.979L65.641,68.979z M81.121,70.557l-0.067,0.076
	c-0.493-0.032-0.911-0.048-1.25-0.048c-0.314,0-0.771,0.016-1.371,0.048l-0.067-0.069c0.08-0.998,0.122-1.768,0.122-2.312v-1.316
	c0-1.092-0.395-1.64-1.184-1.64c-0.413,0-0.734,0.142-0.968,0.424c-0.197,0.236-0.296,0.477-0.296,0.718v1.257
	c0,1.16,0.03,1.874,0.087,2.138c0.037,0.156,0.296,0.238,0.78,0.248l0.066,0.069v0.408l-0.066,0.069
	c-0.381-0.027-0.949-0.041-1.706-0.041c-0.803,0-1.413,0.016-1.835,0.048l-0.066-0.069v-0.411l0.066-0.066
	c0.431-0.014,0.697-0.046,0.8-0.101c0.09-0.039,0.138-0.147,0.147-0.321c0.032-0.583,0.048-1.209,0.048-1.876v-0.961
	c0-0.894-0.034-1.41-0.101-1.546c-0.046-0.09-0.142-0.145-0.289-0.167c-0.055-0.009-0.25-0.021-0.585-0.032l-0.066-0.069v-0.376
	l0.066-0.073c0.807-0.076,1.656-0.261,2.546-0.557l0.149,0.087l-0.014,1.128l1.156-0.968c0.296-0.122,0.619-0.181,0.975-0.181
	c0.711,0,1.245,0.216,1.598,0.645c0.287,0.351,0.429,0.862,0.429,1.539c0,0.076-0.007,0.387-0.025,0.933
	c-0.018,0.548-0.028,0.938-0.028,1.17c0,0.677,0.011,1.108,0.034,1.294c0.021,0.186,0.073,0.305,0.154,0.353
	c0.08,0.05,0.314,0.078,0.699,0.087l0.06,0.066V70.557L81.121,70.557z M85.884,69.704c-0.03,0.037-0.126,0.131-0.289,0.282
	c-0.264,0.252-0.491,0.479-0.679,0.686c-0.218,0.071-0.44,0.108-0.665,0.108c-0.622,0-1.076-0.181-1.362-0.544
	c-0.121-0.158-0.202-0.339-0.243-0.546c-0.044-0.245-0.064-0.569-0.06-0.968l0.018-1.605v-1.679h-0.181l-0.355,0.014h-0.275
	L81.72,65.39v-0.174l0.053-0.101c0.08-0.053,0.206-0.133,0.376-0.241c0.202-0.126,0.355-0.232,0.456-0.317v-0.913
	c0-0.381-0.016-0.784-0.053-1.211c0.337-0.108,0.608-0.202,0.817-0.285c0.209-0.082,0.502-0.218,0.883-0.406l0.174,0.133
	c-0.053,0.555-0.092,1.053-0.112,1.493l-0.062,1.16h0.222c0.488,0,0.908-0.014,1.264-0.046l0.073,0.073l-0.094,0.787l-0.066,0.066
	h-1.399v2.277c0,0.732,0.009,1.16,0.028,1.291c0.023,0.188,0.101,0.339,0.238,0.456c0.138,0.117,0.321,0.174,0.555,0.174
	c0.183,0,0.404-0.048,0.665-0.147L85.884,69.704L85.884,69.704z M97.482,63.207c0,0.924-0.314,1.644-0.945,2.16
	c-0.628,0.518-1.339,0.775-2.133,0.775c-0.268,0-0.539-0.03-0.814-0.094c-0.039-0.119-0.117-0.282-0.234-0.482l0.14-0.149
	c0.19,0.062,0.362,0.094,0.518,0.094c0.452,0,0.816-0.16,1.089-0.479c0.273-0.321,0.408-0.771,0.408-1.349
	c0-1.25-0.562-1.874-1.686-1.874c-0.135,0-0.404,0.027-0.807,0.08c-0.039,0.108-0.06,0.84-0.06,2.197v3.555
	c0,1.067,0.03,1.759,0.087,2.082c0.023,0.131,0.098,0.213,0.229,0.248c0.039,0.009,0.346,0.032,0.92,0.069l0.073,0.073v0.443
	l-0.066,0.069c-0.612-0.027-1.348-0.041-2.204-0.041c-0.963,0-1.653,0.014-2.069,0.041l-0.066-0.062v-0.449l0.073-0.073
	c0.452-0.028,0.711-0.05,0.78-0.069c0.128-0.034,0.204-0.117,0.227-0.248c0.06-0.323,0.087-1.016,0.087-2.082v-3.555
	c0-1.066-0.028-1.761-0.087-2.082c-0.023-0.131-0.099-0.213-0.227-0.25c-0.069-0.016-0.33-0.039-0.787-0.067l-0.066-0.073V61.17
	l0.073-0.066c0.438,0.028,1.112,0.041,2.023,0.041c0.376,0,0.918-0.007,1.626-0.021c0.706-0.014,1.115-0.021,1.222-0.021
	c1.227,0,2.025,0.312,2.392,0.933C97.388,62.36,97.482,62.75,97.482,63.207L97.482,63.207z M104.227,66.814
	c0,0.078-0.002,0.19-0.007,0.344l-0.073,0.094c-0.592,0.161-1.376,0.241-2.351,0.241c-0.177,0-0.44,0.005-0.794,0.011
	c-0.353,0.007-0.621,0.009-0.8,0.009c0.027,0.658,0.232,1.204,0.612,1.633c0.399,0.461,0.917,0.693,1.557,0.693
	c0.431,0,0.943-0.149,1.532-0.445l0.163,0.195l-0.296,0.665c-0.654,0.417-1.365,0.626-2.13,0.626c-1.007,0-1.791-0.284-2.349-0.853
	c-0.557-0.569-0.837-1.381-0.837-2.433c0-1.25,0.298-2.105,0.894-2.566c0.823-0.635,1.605-0.954,2.346-0.954
	c0.8,0,1.422,0.232,1.86,0.693C104.002,65.241,104.227,65.924,104.227,66.814L104.227,66.814z M102.473,66.64
	c0-1.209-0.376-1.814-1.128-1.814c-0.791,0-1.188,0.601-1.188,1.8v0.149c0.259,0.039,0.72,0.059,1.383,0.059
	c0.346,0,0.654-0.021,0.927-0.059C102.47,66.713,102.473,66.667,102.473,66.64L102.473,66.64z M109.185,69.704
	c-0.03,0.037-0.126,0.131-0.289,0.282c-0.264,0.252-0.491,0.479-0.679,0.686c-0.218,0.071-0.44,0.108-0.665,0.108
	c-0.621,0-1.075-0.181-1.362-0.544c-0.122-0.158-0.202-0.339-0.243-0.546c-0.043-0.245-0.064-0.569-0.059-0.968l0.018-1.605v-1.679
	h-0.181l-0.355,0.014h-0.275l-0.073-0.062v-0.174l0.053-0.101c0.08-0.053,0.206-0.133,0.376-0.241
	c0.202-0.126,0.355-0.232,0.456-0.317v-0.913c0-0.381-0.016-0.784-0.053-1.211c0.337-0.108,0.608-0.202,0.816-0.285
	c0.209-0.082,0.502-0.218,0.883-0.406l0.174,0.133c-0.053,0.555-0.092,1.053-0.112,1.493l-0.062,1.16h0.223
	c0.488,0,0.908-0.014,1.264-0.046l0.073,0.073l-0.094,0.787l-0.067,0.066h-1.399v2.277c0,0.732,0.009,1.16,0.028,1.291
	c0.023,0.188,0.101,0.339,0.238,0.456c0.138,0.117,0.321,0.174,0.555,0.174c0.184,0,0.404-0.048,0.665-0.147L109.185,69.704
	L109.185,69.704z M115.69,66.814c0,0.078-0.002,0.19-0.007,0.344l-0.073,0.094c-0.592,0.161-1.376,0.241-2.351,0.241
	c-0.176,0-0.44,0.005-0.793,0.011c-0.353,0.007-0.621,0.009-0.8,0.009c0.028,0.658,0.232,1.204,0.612,1.633
	c0.399,0.461,0.917,0.693,1.557,0.693c0.431,0,0.943-0.149,1.532-0.445l0.163,0.195l-0.296,0.665
	c-0.654,0.417-1.365,0.626-2.13,0.626c-1.007,0-1.791-0.284-2.349-0.853c-0.557-0.569-0.837-1.381-0.837-2.433
	c0-1.25,0.298-2.105,0.894-2.566c0.823-0.635,1.605-0.954,2.346-0.954c0.8,0,1.422,0.232,1.86,0.693
	C115.465,65.241,115.69,65.924,115.69,66.814L115.69,66.814z M113.935,66.64c0-1.209-0.376-1.814-1.128-1.814
	c-0.791,0-1.188,0.601-1.188,1.8v0.149c0.259,0.039,0.72,0.059,1.383,0.059c0.346,0,0.654-0.021,0.927-0.059
	C113.933,66.713,113.935,66.667,113.935,66.64L113.935,66.64z M121.515,64.094l-0.046,1.195c-0.005,0.197-0.014,0.422-0.027,0.672
	l-0.282,0.087c-0.211-0.303-0.502-0.456-0.874-0.456c-0.337,0-0.615,0.135-0.833,0.404c-0.135,0.165-0.202,0.411-0.202,0.732V68.3
	c0,0.326,0.016,0.782,0.046,1.365c0.009,0.165,0.057,0.273,0.142,0.321c0.085,0.05,0.397,0.083,0.933,0.101l0.067,0.062v0.408
	l-0.067,0.069c-0.658-0.027-1.312-0.041-1.961-0.041c-0.803,0-1.415,0.016-1.835,0.048l-0.069-0.069v-0.411l0.069-0.066
	c0.429-0.014,0.695-0.046,0.798-0.101c0.089-0.039,0.14-0.147,0.149-0.321c0.032-0.583,0.046-1.209,0.046-1.876v-0.961
	c0-0.894-0.032-1.41-0.101-1.546c-0.043-0.09-0.14-0.145-0.289-0.167c-0.053-0.009-0.248-0.021-0.582-0.032l-0.069-0.069v-0.376
	l0.069-0.073c0.805-0.076,1.654-0.261,2.546-0.557l0.147,0.087l-0.011,1.317c0.278-0.321,0.612-0.7,1.007-1.128
	c0.184-0.179,0.433-0.268,0.752-0.268C121.226,64.014,121.384,64.039,121.515,64.094L121.515,64.094z M127.166,68.475
	c0,0.722-0.273,1.303-0.816,1.743c-0.544,0.443-1.254,0.663-2.133,0.663c-0.624,0-1.291-0.135-2.002-0.404l-0.073-0.101
	c0.039-0.413,0.064-0.731,0.073-0.961l0.032-0.846l0.069-0.073h0.397l0.08,0.073c0.018,0.502,0.037,0.798,0.06,0.888
	c0.381,0.488,0.88,0.732,1.497,0.732c0.395,0,0.711-0.096,0.949-0.289c0.236-0.193,0.355-0.45,0.355-0.773
	c0-0.406-0.179-0.679-0.539-0.812c-0.151-0.06-0.454-0.135-0.906-0.229c-0.738-0.156-1.234-0.335-1.486-0.537
	c-0.381-0.305-0.571-0.754-0.571-1.351c0-0.649,0.236-1.172,0.706-1.566c0.493-0.41,1.16-0.617,2.002-0.617
	c0.718,0,1.312,0.119,1.787,0.362l0.062,0.108c-0.05,0.202-0.087,0.718-0.115,1.553l-0.074,0.066h-0.383l-0.073-0.066
	c-0.018-0.323-0.051-0.585-0.094-0.787c-0.285-0.358-0.693-0.539-1.232-0.539c-0.349,0-0.635,0.087-0.86,0.257
	c-0.222,0.17-0.335,0.395-0.335,0.672c0,0.372,0.19,0.619,0.571,0.745c0.17,0.053,0.502,0.131,0.995,0.229
	c0.752,0.147,1.248,0.317,1.491,0.509C126.978,67.424,127.166,67.874,127.166,68.475L127.166,68.475z M135.33,66.72
	c0,0.812-0.193,1.514-0.578,2.103c-0.168,0.257-0.316,0.436-0.452,0.539c-0.133,0.103-0.418,0.307-0.853,0.61
	c-0.094,0.069-0.346,0.248-0.759,0.539c-0.216,0.151-0.459,0.257-0.732,0.314c-0.17,0.037-0.36,0.055-0.571,0.055
	c-0.53,0-1.092-0.186-1.688-0.557l-0.624,0.502l-0.303-0.105c0.085-1.426,0.128-2.667,0.128-3.722v-2.642
	c0-0.232-0.011-0.775-0.035-1.626c-0.005-0.236-0.016-0.45-0.034-0.638c-0.021-0.234-0.14-0.369-0.355-0.411
	c-0.048-0.009-0.234-0.021-0.557-0.032l-0.067-0.076v-0.369l0.067-0.073c0.855-0.09,1.722-0.275,2.601-0.557l0.147,0.08
	c-0.057,1.674-0.087,2.972-0.087,3.89v0.713l0.814-0.679c0.401-0.337,0.867-0.505,1.39-0.505c1.085,0,1.835,0.431,2.252,1.291
	C135.232,65.771,135.33,66.225,135.33,66.72L135.33,66.72z M133.603,67.475c0-0.661-0.152-1.186-0.454-1.58
	c-0.303-0.395-0.709-0.592-1.22-0.592c-0.296,0-0.58,0.078-0.853,0.236c-0.229,0.128-0.394,0.28-0.498,0.449v3.172
	c0.337,0.498,0.8,0.745,1.392,0.745c0.528,0,0.936-0.229,1.223-0.686C133.466,68.786,133.603,68.204,133.603,67.475L133.603,67.475z
	 M144.112,70.55l-0.069,0.069c-0.672-0.023-1.094-0.034-1.268-0.034c-0.149,0-0.369,0.005-0.661,0.016
	c-0.291,0.012-0.507,0.018-0.651,0.018l-0.053-0.055c0.034-0.367,0.053-0.716,0.053-1.048c-0.232,0.174-0.64,0.546-1.222,1.117
	c-0.291,0.11-0.603,0.168-0.933,0.168c-0.605,0-1.083-0.165-1.431-0.495c-0.351-0.328-0.525-0.803-0.525-1.42
	c0-0.076,0.004-0.239,0.014-0.484c0.009-0.248,0.014-0.484,0.014-0.713v-0.86c0-0.885-0.035-1.401-0.101-1.546
	c-0.044-0.09-0.14-0.145-0.289-0.167c-0.053-0.009-0.25-0.021-0.592-0.032l-0.066-0.069v-0.376l0.066-0.073
	c0.855-0.076,1.722-0.261,2.601-0.557l0.149,0.087c-0.06,0.743-0.089,1.431-0.089,2.062v1.312c0,0.612,0.021,1.032,0.062,1.254
	c0.044,0.271,0.151,0.475,0.319,0.612c0.168,0.14,0.392,0.209,0.674,0.209c0.351,0,0.658-0.112,0.922-0.337
	c0.25-0.222,0.383-0.479,0.397-0.766c0.009-0.218,0.011-0.355,0.011-0.408v-1.204c0-0.878-0.032-1.392-0.099-1.546
	c-0.041-0.09-0.135-0.145-0.284-0.167c-0.053-0.009-0.25-0.021-0.589-0.032l-0.076-0.069v-0.376l0.076-0.073
	c0.851-0.076,1.718-0.261,2.598-0.557l0.142,0.087c-0.057,0.672-0.087,1.36-0.087,2.062v2.11c0,0.945,0.027,1.481,0.08,1.605
	c0.028,0.064,0.071,0.103,0.135,0.122c0.108,0.032,0.34,0.06,0.697,0.08l0.076,0.069V70.55L144.112,70.55z M149.788,64.094
	l-0.046,1.195c-0.005,0.197-0.014,0.422-0.027,0.672l-0.282,0.087c-0.211-0.303-0.502-0.456-0.874-0.456
	c-0.337,0-0.615,0.135-0.833,0.404c-0.135,0.165-0.202,0.411-0.202,0.732V68.3c0,0.326,0.016,0.782,0.046,1.365
	c0.009,0.165,0.057,0.273,0.142,0.321c0.085,0.05,0.397,0.083,0.933,0.101l0.066,0.062v0.408l-0.066,0.069
	c-0.658-0.027-1.312-0.041-1.961-0.041c-0.803,0-1.415,0.016-1.835,0.048l-0.069-0.069v-0.411l0.069-0.066
	c0.429-0.014,0.695-0.046,0.798-0.101c0.089-0.039,0.14-0.147,0.149-0.321c0.032-0.583,0.046-1.209,0.046-1.876v-0.961
	c0-0.894-0.032-1.41-0.101-1.546c-0.043-0.09-0.14-0.145-0.289-0.167c-0.053-0.009-0.248-0.021-0.582-0.032l-0.069-0.069v-0.376
	l0.069-0.073c0.805-0.076,1.653-0.261,2.546-0.557l0.147,0.087l-0.011,1.317c0.277-0.321,0.612-0.7,1.007-1.128
	c0.184-0.179,0.433-0.268,0.752-0.268C149.499,64.014,149.657,64.039,149.788,64.094L149.788,64.094z M157.305,71.048
	c0,0.982-0.365,1.764-1.099,2.346c-0.732,0.583-1.688,0.872-2.871,0.872c-0.927,0-1.66-0.172-2.199-0.52
	c-0.541-0.347-0.81-0.814-0.81-1.399c0-0.394,0.087-0.693,0.261-0.894c0.018-0.023,0.254-0.17,0.711-0.443
	c0.22-0.131,0.381-0.223,0.484-0.278c-0.617-0.106-0.926-0.404-0.926-0.892c0-0.259,0.089-0.525,0.268-0.794
	c0.014-0.018,0.135-0.108,0.362-0.268c0.108-0.076,0.298-0.213,0.571-0.411c-0.965-0.349-1.449-0.995-1.449-1.94
	c0-0.732,0.273-1.319,0.819-1.766c0.546-0.445,1.275-0.667,2.183-0.667c0.878,0,1.566,0.195,2.064,0.585
	c0.282,0.014,0.463,0.018,0.544,0.014c0.22-0.009,0.55-0.021,0.993-0.034l0.082,0.073l-0.076,0.693l-0.073,0.066h-0.993
	c0.057,0.216,0.087,0.436,0.087,0.658c0,1.066-0.518,1.796-1.553,2.186c-0.466,0.174-0.924,0.262-1.378,0.262
	c-0.151,0-0.349-0.011-0.592-0.034c-0.282,0.154-0.422,0.353-0.422,0.598c0,0.229,0.163,0.358,0.491,0.39
	c0.188,0.018,0.502,0.028,0.94,0.028c0.138,0,0.381-0.007,0.725-0.021c0.346-0.014,0.601-0.021,0.766-0.021
	c1.014,0,1.642,0.225,1.89,0.672C157.239,70.348,157.305,70.662,157.305,71.048L157.305,71.048z M154.544,66.351
	c0-1.128-0.379-1.692-1.135-1.692c-0.743,0-1.115,0.489-1.115,1.465c0,1.156,0.388,1.734,1.163,1.734
	C154.182,67.858,154.544,67.355,154.544,66.351L154.544,66.351z M155.769,71.814c0-0.488-0.172-0.796-0.512-0.92
	c-0.144-0.055-0.431-0.082-0.86-0.087l-1.277-0.014c-0.142,0-0.339,0.004-0.592,0.014c-0.612,0.381-0.92,0.816-0.92,1.31
	c0,0.452,0.181,0.807,0.544,1.064c0.365,0.259,0.851,0.388,1.459,0.388c0.654,0,1.176-0.158,1.569-0.475
	C155.572,72.779,155.769,72.353,155.769,71.814L155.769,71.814z M71.241,59.904c-0.303-0.199-0.996,0.436-1.516,1.582
	c-0.24,0.529-0.689,1.72-0.282,1.919c0.397,0.194,1.151-0.786,1.492-1.485C71.165,61.447,71.787,60.263,71.241,59.904z"/>
<path style="fill-rule:evenodd;clip-rule:evenodd;fill:#FFFFFF;" d="M76.946,0.086c-0.722-0.473-2.372,1.038-3.612,3.769
	c-0.572,1.26-1.64,4.097-0.672,4.571c0.945,0.462,2.742-1.872,3.552-3.536C76.765,3.76,78.248,0.94,76.946,0.086L76.946,0.086z
	 M80.404,25.264l-0.16,0.166c-1.027-0.077-2.5-0.116-4.431-0.116c-1.931,0-3.399,0.039-4.415,0.116l-0.16-0.166v-0.988l0.16-0.16
	c1.038-0.033,1.678-0.11,1.926-0.243c0.215-0.094,0.331-0.353,0.353-0.772c0.077-1.402,0.116-2.908,0.116-4.514v-2.312
	c0-2.091-0.083-3.327-0.243-3.719c-0.088-0.215-0.32-0.348-0.695-0.403c-0.132-0.022-0.601-0.05-1.407-0.077l-0.16-0.166v-0.905
	l0.16-0.176c2.698-0.131,3.992-0.307,5.829-3.624c0.049-0.097,0.109-0.208,0.171-0.302c0.043-0.044,0.23-0.17,0.256-0.171
	c0.253-0.006,0.692,0.038,0.81,0.026c0.036,0.005,0.178,0.159,0.183,0.198c0.006,0.052-0.066,0.177-0.083,0.24
	c-0.154,0.565-0.399,1.41-0.511,2.14c-0.145,0.947-0.269,3.277-0.269,5.323v5.159c0,0.783,0.039,1.882,0.116,3.283
	c0.022,0.419,0.138,0.679,0.353,0.772c0.248,0.133,0.888,0.21,1.926,0.243l0.176,0.16V25.264L80.404,25.264z M69.035,19.985
	c-0.237,1.577-0.353,3.352-0.353,5.331l-0.165,0.165l-11.743-0.099c-1.957,0-3.341,0.033-4.146,0.099l-0.165-0.165v-0.452
	l0.083-0.193c0.794-0.507,1.229-0.821,1.29-0.954c0.099-0.204,0.16-0.921,0.176-2.145l0.05-3.622V9.763
	c0-2.564-0.066-4.234-0.21-5.006c-0.055-0.314-0.237-0.513-0.546-0.601c-0.165-0.039-0.794-0.094-1.891-0.16l-0.16-0.16V2.739
	l0.16-0.149c1.086,0.066,2.768,0.099,5.039,0.099c2.023,0,5.872-0.033,11.55-0.099l0.176,0.132l-0.209,1.792
	c-0.066,0.568-0.116,1.053-0.149,1.455l-0.11,1.5l-0.16,0.176h-0.937l-0.165-0.16c-0.011-1.466-0.094-2.299-0.259-2.503
	c-0.116-0.154-0.695-0.27-1.731-0.358c-1.042-0.083-1.952-0.127-2.74-0.127c-0.937,0-1.885,0.039-2.845,0.11
	c-0.116,1.13-0.176,2.702-0.176,4.703v3.341c0.849,0.055,1.538,0.083,2.067,0.083l2.117-0.017c0.992-0.011,1.549-0.088,1.682-0.243
	c0.171-0.193,0.281-0.921,0.336-2.178l0.16-0.165h1.003l0.16,0.165c-0.039,1.202-0.061,2.31-0.061,3.308
	c0,1.092,0.022,2.277,0.061,3.572l-0.16,0.144h-1.081l-0.165-0.16c0-1.241-0.083-1.974-0.254-2.205
	c-0.176-0.232-0.695-0.386-1.571-0.463c-0.656-0.05-1.356-0.077-2.095-0.077c-0.788,0-1.522,0.027-2.2,0.077v4.929
	c0,1.411,0.028,2.779,0.083,4.102h2.194c3.142,0,5.072-0.121,5.783-0.369c0.116-0.044,0.204-0.105,0.259-0.182
	c0.105-0.149,0.209-0.469,0.309-0.965l0.386-2.007l0.16-0.176h0.987L69.035,19.985L69.035,19.985z M93.878,1.46l-0.066,1.731
	l0.033,1.615l-0.502,0.287c-0.513-0.535-1.169-0.805-1.968-0.805c-1.246,0-1.946,0.48-2.101,1.439c-0.072,0.48-0.11,1.45-0.11,2.905
	v2.261h1.467c0.733,0,1.682-0.044,2.845-0.127l0.226,0.176l-0.369,1.841l-0.165,0.16l-2.31-0.017c-0.816,0-1.384,0.006-1.693,0.017
	v2.878c0,4.885,0.072,7.498,0.226,7.834c0.083,0.193,0.232,0.314,0.436,0.369c0.32,0.077,1.064,0.127,2.227,0.16l0.16,0.16v0.987
	l-0.16,0.165l-1.196-0.05c-1.141-0.044-2.376-0.066-3.716-0.066c-1.924,0-3.396,0.038-4.405,0.116l-0.165-0.165v-0.987l0.165-0.16
	c1.031-0.033,1.67-0.11,1.919-0.243c0.215-0.094,0.336-0.353,0.358-0.772c0.072-1.4,0.11-3.854,0.11-7.349v-2.878
	c-0.237-0.011-0.38-0.017-0.436-0.017c-0.116,0-0.43,0.017-0.937,0.05c-0.248,0.011-0.585,0.028-1.014,0.05l-0.165-0.165v-0.496
	l0.149-0.226l1.433-0.744c0.281-0.132,0.579-0.287,0.893-0.469c0.05-0.066,0.077-0.16,0.077-0.292v-0.243
	c0-1.659,0.11-2.79,0.325-3.391c0.116-0.325,0.342-0.689,0.678-1.097c0.094-0.121,0.794-0.799,2.1-2.034l0.998-0.954
	c0.292-0.292,0.667-0.634,1.119-1.036c0.59-0.43,1.312-0.645,2.161-0.645C92.957,1.234,93.415,1.312,93.878,1.46L93.878,1.46z
	 M122.822,25.299l-0.16,0.182c-0.623-0.066-1.737-0.099-3.33-0.099c-1.323,0-2.266,0.033-2.823,0.099l-0.226-0.309
	c0.171-2.679,0.259-4.637,0.259-5.866V17.84c0-1.582-0.05-2.646-0.149-3.181c-0.116-0.65-0.386-1.163-0.805-1.555
	c-0.419-0.386-0.992-0.579-1.714-0.579c-0.805,0-1.478,0.226-2.018,0.678c-0.54,0.452-0.81,1.031-0.81,1.726v4.818l0.066,2.547
	c0.022,0.689,0.083,1.141,0.176,1.362c0.066,0.138,0.209,0.237,0.441,0.303c0.193,0.055,0.711,0.127,1.566,0.209l0.176,0.165v0.965
	l-0.193,0.182c-1.307-0.066-2.624-0.099-3.959-0.099c-1.659,0-3.082,0.033-4.262,0.099l-0.182-0.182v-0.954l0.165-0.193
	c0.678-0.061,1.147-0.121,1.406-0.176c0.193-0.044,0.331-0.204,0.419-0.485c0.061-0.204,0.099-0.799,0.11-1.792l0.033-5.215
	c0-1.207-0.094-2.067-0.276-2.586c-0.149-0.408-0.435-0.75-0.854-1.02c-0.375-0.248-0.871-0.369-1.489-0.369
	c-0.965,0-1.737,0.325-2.31,0.97c-0.264,0.298-0.424,0.54-0.474,0.728c-0.05,0.182-0.072,0.584-0.072,1.207v3.507
	c0,0.689,0.022,1.582,0.066,2.679c0.039,1.136,0.083,1.792,0.127,1.974c0.066,0.226,0.243,0.38,0.54,0.458
	c0.298,0.083,0.744,0.127,1.351,0.138l0.16,0.165v0.981l-0.16,0.165c-0.915-0.066-2.282-0.099-4.102-0.099
	c-1.93,0-3.402,0.038-4.41,0.116l-0.16-0.165v-0.987l0.16-0.16c1.031-0.033,1.676-0.11,1.918-0.243
	c0.221-0.094,0.336-0.353,0.358-0.772c0.077-1.4,0.11-2.905,0.11-4.51v-2.31c0-2.15-0.077-3.391-0.237-3.716
	c-0.11-0.215-0.342-0.347-0.695-0.403c-0.132-0.022-0.601-0.05-1.406-0.077l-0.165-0.165v-0.904l0.165-0.176
	c1.935-0.182,3.975-0.628,6.12-1.34l0.353,0.209l-0.027,2.569l2.872-2.327c0.529-0.237,1.152-0.358,1.874-0.358
	c1.241,0,2.2,0.204,2.889,0.606c0.689,0.408,1.246,1.114,1.665,2.128l2.938-2.376c0.529-0.248,1.169-0.375,1.924-0.375
	c2.079,0,3.523,0.755,4.328,2.266c0.358,0.667,0.535,1.687,0.535,3.065c0,0.573-0.005,0.998-0.016,1.279l-0.017,0.612
	c-0.022,0.518-0.033,0.86-0.033,1.037v2.095c0,1.626,0.028,2.663,0.083,3.11c0.05,0.447,0.176,0.733,0.369,0.849
	c0.193,0.121,0.744,0.187,1.649,0.209l0.16,0.176V25.299L122.822,25.299z M139.345,25.283l-0.176,0.182
	c-0.904-0.055-1.941-0.083-3.115-0.083c-0.915,0-1.797,0.028-2.635,0.083l-0.143-0.182l0.143-2.161l-3.131,2.387
	c-0.248,0.188-0.606,0.298-1.07,0.342c-0.182,0.022-0.397,0.033-0.645,0.033c-1.196,0-2.111-0.364-2.751-1.08
	c-0.645-0.722-0.965-1.72-0.965-2.988c0-1.682,0.535-2.872,1.599-3.573c1.152-0.766,3.473-1.455,6.963-2.067
	c0-1.709-0.452-2.856-1.356-3.44c-0.551-0.353-1.207-0.535-1.968-0.535c-0.844,0-1.505,0.176-1.99,0.518l-0.612,1.505l-0.21,0.11
	l-0.827-0.193l-0.11-0.226l0.083-1.908c1.775-1.312,3.109-2.056,4.002-2.227c0.375-0.077,0.866-0.116,1.472-0.116
	c2.117,0,3.633,0.557,4.537,1.665c0.656,0.81,0.987,2.045,0.987,3.716c0,0.408-0.017,1.064-0.05,1.968
	c-0.055,1.511-0.083,2.514-0.083,3.021c0,1.626,0.028,2.663,0.083,3.109c0.055,0.446,0.182,0.733,0.38,0.849
	c0.199,0.121,0.673,0.188,1.428,0.209l0.16,0.176V25.283L139.345,25.283z M133.418,21.523v-3.975
	c-1.775,0.386-2.972,0.805-3.595,1.251c-0.617,0.447-0.926,1.13-0.926,2.045c0,1.461,0.64,2.194,1.919,2.194
	C131.907,23.039,132.773,22.532,133.418,21.523L133.418,21.523z M159.617,25.316l-0.16,0.182c-1.185-0.077-2.189-0.116-3.005-0.116
	c-0.755,0-1.852,0.038-3.297,0.116l-0.16-0.165c0.193-2.398,0.292-4.251,0.292-5.557v-3.164c0-2.624-0.948-3.942-2.845-3.942
	c-0.992,0-1.764,0.342-2.327,1.02c-0.474,0.568-0.711,1.147-0.711,1.726v3.021c0,2.79,0.072,4.504,0.21,5.138
	c0.088,0.375,0.711,0.573,1.874,0.595l0.16,0.165v0.981l-0.16,0.165c-0.915-0.066-2.282-0.099-4.102-0.099
	c-1.93,0-3.396,0.038-4.41,0.116l-0.16-0.165v-0.987l0.16-0.16c1.036-0.033,1.676-0.11,1.924-0.243
	c0.215-0.094,0.331-0.353,0.353-0.772c0.077-1.4,0.116-2.905,0.116-4.51v-2.31c0-2.15-0.083-3.391-0.243-3.716
	c-0.11-0.215-0.342-0.347-0.694-0.403c-0.132-0.022-0.601-0.05-1.406-0.077l-0.16-0.165v-0.904l0.16-0.176
	c1.941-0.182,3.98-0.628,6.12-1.34l0.358,0.209l-0.033,2.713l2.778-2.327c0.711-0.292,1.489-0.435,2.343-0.435
	c1.709,0,2.993,0.518,3.843,1.549c0.689,0.844,1.031,2.073,1.031,3.699c0,0.182-0.017,0.932-0.061,2.244
	c-0.044,1.318-0.066,2.255-0.066,2.812c0,1.626,0.028,2.663,0.083,3.109c0.05,0.446,0.176,0.733,0.369,0.849
	c0.193,0.121,0.755,0.188,1.682,0.209l0.143,0.16V25.316z"/>
</svg>
