<?xml version="1.0" encoding="utf-8"?>
<!-- Generator: Adobe Illustrator 16.0.0, SVG Export Plug-In . SVG Version: 6.00 Build 0)  -->
<!DOCTYPE svg PUBLIC "-//W3C//DTD SVG 1.1//EN" "http://www.w3.org/Graphics/SVG/1.1/DTD/svg11.dtd">
<svg version="1.1" id="Layer_1" xmlns="http://www.w3.org/2000/svg" xmlns:xlink="http://www.w3.org/1999/xlink" x="0px" y="0px"
	 width="566.93px" height="566.93px" viewBox="0 0 566.93 566.93" enable-background="new 0 0 566.93 566.93" xml:space="preserve">
<path fill="#999999" d="M283.465,0C126.936,0,0,126.898,0,283.427c0,156.567,126.936,283.465,283.465,283.465
	S566.93,439.994,566.93,283.427C566.93,126.898,439.994,0,283.465,0z M469.965,276.753c-21.101,21.4-47.4,47.9-78.301,68.801
	c-36.3,24.5-71.699,36.4-108.199,36.4c-82.601,0-130.2-48.701-185.3-105.1l-6.7-6.9l1-1c38.6-39.8,66.7-64,94.1-81.201
	c32.5-20.3,63.3-29.8,96.9-29.8c83.199,0,145.8,60,191.1,112.2l0.9,1.1L469.965,276.753z"/>
<path fill="#999999" d="M283.465,189.954c-44.101,0-80,35.9-80,80c0,44.1,35.899,80,80,80c44.1,0,80-35.9,80-80
	C363.465,225.854,327.565,189.954,283.465,189.954z M283.365,318.253c-26.399,0-47.899-21.5-47.899-48.1s21.399-48.2,47.899-48.2
	c-3.5,5.4-5.5,11.9-5.5,18.8c0,19.201,15.601,34.8,34.7,34.9c6.9,0,13.4-2,18.8-5.5
	C331.365,296.753,309.765,318.253,283.365,318.253z"/>
</svg>
