<?xml version="1.0" encoding="utf-8"?>
<!-- Generator: Adobe Illustrator 19.0.1, SVG Export Plug-In . SVG Version: 6.00 Build 0)  -->
<svg version="1.1" id="Layer_1" xmlns="http://www.w3.org/2000/svg" xmlns:xlink="http://www.w3.org/1999/xlink" x="0px" y="0px"
	 viewBox="0 0 60 37" style="enable-background:new 0 0 60 37;" xml:space="preserve">
<style type="text/css">
	.st0{fill:#FFFFFF;}
</style>
<g>
	<g>
		<polygon class="st0" points="40.9,37 50.8,0 42.7,0 32.7,37 		"/>
	</g>
	<polygon class="st0" points="30.8,0 22.9,29.1 19.9,29.1 10.2,29.1 13.2,17.9 22.9,17.9 25,10 15.3,10 7.2,10 5.1,17.9 2.1,29.1 
		0,37 8.1,37 17.8,37 20.8,37 25.9,37 28.9,37 29,37 30.9,29.8 30.9,29.6 38.9,0 	"/>
	<polygon class="st0" points="49.8,17.9 57.9,17.9 60,10 51.9,10 	"/>
</g>
</svg>
