<?xml version="1.0" encoding="utf-8"?>
<!-- Generator: Adobe Illustrator 17.1.0, SVG Export Plug-In . SVG Version: 6.00 Build 0)  -->
<!DOCTYPE svg PUBLIC "-//W3C//DTD SVG 1.1//EN" "http://www.w3.org/Graphics/SVG/1.1/DTD/svg11.dtd">
<svg version="1.1" id="Layer_1" xmlns="http://www.w3.org/2000/svg" xmlns:xlink="http://www.w3.org/1999/xlink" x="0px" y="0px"
	 viewBox="0 0 9 9" enable-background="new 0 0 9 9" xml:space="preserve">
<g>
	<path fill="#FFFFFF" d="M4.328,0C1.938,0,0,1.938,0,4.326c0,2.39,1.938,4.327,4.328,4.327c2.389,0,4.326-1.938,4.326-4.327
		C8.654,1.938,6.717,0,4.328,0z M0.646,4.615c-0.158,0-0.289-0.129-0.289-0.288c0-0.16,0.131-0.289,0.289-0.289
		c0.16,0,0.289,0.129,0.289,0.289C0.936,4.486,0.807,4.615,0.646,4.615z M4.328,0.357c0.16,0,0.289,0.129,0.289,0.288
		c0,0.16-0.129,0.289-0.289,0.289c-0.16,0-0.289-0.129-0.289-0.289C4.039,0.486,4.168,0.357,4.328,0.357z M4.328,8.297
		c-0.16,0-0.289-0.129-0.289-0.289c0-0.159,0.129-0.288,0.289-0.288c0.16,0,0.289,0.129,0.289,0.288
		C4.617,8.168,4.488,8.297,4.328,8.297z M4.356,5.497l-2-1.171l0.344-0.587l1.396,0.819l1.512-2.751l0.596,0.327L4.356,5.497z
		 M8.01,4.615c-0.16,0-0.289-0.129-0.289-0.288c0-0.16,0.129-0.289,0.289-0.289c0.158,0,0.287,0.129,0.287,0.289
		C8.297,4.486,8.168,4.615,8.01,4.615z"/>
</g>
</svg>
